<?xml version="1.0" encoding="utf-8" standalone="no"?>
<!DOCTYPE svg PUBLIC "-//W3C//DTD SVG 1.1//EN"
  "http://www.w3.org/Graphics/SVG/1.1/DTD/svg11.dtd">
<svg xmlns:xlink="http://www.w3.org/1999/xlink" width="627.315239pt" height="564.60165pt" viewBox="0 0 627.315239 564.60165" xmlns="http://www.w3.org/2000/svg" version="1.1">
 <metadata>
  <rdf:RDF xmlns:dc="http://purl.org/dc/elements/1.1/" xmlns:cc="http://creativecommons.org/ns#" xmlns:rdf="http://www.w3.org/1999/02/22-rdf-syntax-ns#">
   <cc:Work>
    <dc:type rdf:resource="http://purl.org/dc/dcmitype/StillImage"/>
    <dc:date>2025-08-03T11:35:08.188565</dc:date>
    <dc:format>image/svg+xml</dc:format>
    <dc:creator>
     <cc:Agent>
      <dc:title>Matplotlib v3.9.1, https://matplotlib.org/</dc:title>
     </cc:Agent>
    </dc:creator>
   </cc:Work>
  </rdf:RDF>
 </metadata>
 <defs>
  <style type="text/css">*{stroke-linejoin: round; stroke-linecap: butt}</style>
 </defs>
 <g id="figure_1">
  <g id="patch_1">
   <path d="M 0 564.60165 
L 627.315239 564.60165 
L 627.315239 0 
L 0 0 
z
" style="fill: #ffffff"/>
  </g>
  <g id="axes_1">
   <g id="patch_2">
    <path d="M 525.199812 310.395193 
C 525.199812 279.202854 519.055601 248.313821 507.118809 219.495857 
C 495.182018 190.677894 477.684787 164.491436 455.628472 142.435122 
C 433.572158 120.378807 407.3857 102.881576 378.567736 90.944784 
C 349.749773 79.007993 318.86074 72.863782 287.668401 72.863782 
C 256.476062 72.863782 225.587029 79.007993 196.769065 90.944784 
C 167.951102 102.881576 141.764644 120.378807 119.70833 142.435122 
C 97.652015 164.491436 80.154784 190.677894 68.217992 219.495857 
C 56.281201 248.313821 50.13699 279.202854 50.13699 310.395193 
C 50.13699 341.587532 56.281201 372.476565 68.217992 401.294528 
C 80.154784 430.112492 97.652015 456.298949 119.70833 478.355264 
C 141.764644 500.411578 167.951102 517.90881 196.769065 529.845601 
C 225.587029 541.782393 256.476062 547.926603 287.668401 547.926603 
C 318.86074 547.926603 349.749773 541.782393 378.567736 529.845601 
C 407.3857 517.90881 433.572158 500.411578 455.628472 478.355264 
C 477.684787 456.298949 495.182018 430.112492 507.118809 401.294528 
C 519.055601 372.476565 525.199812 341.587532 525.199812 310.395193 
M 287.668401 310.395193 
C 287.668401 310.395193 287.668401 310.395193 287.668401 310.395193 
C 287.668401 310.395193 287.668401 310.395193 287.668401 310.395193 
C 287.668401 310.395193 287.668401 310.395193 287.668401 310.395193 
C 287.668401 310.395193 287.668401 310.395193 287.668401 310.395193 
C 287.668401 310.395193 287.668401 310.395193 287.668401 310.395193 
C 287.668401 310.395193 287.668401 310.395193 287.668401 310.395193 
C 287.668401 310.395193 287.668401 310.395193 287.668401 310.395193 
C 287.668401 310.395193 287.668401 310.395193 287.668401 310.395193 
C 287.668401 310.395193 287.668401 310.395193 287.668401 310.395193 
C 287.668401 310.395193 287.668401 310.395193 287.668401 310.395193 
C 287.668401 310.395193 287.668401 310.395193 287.668401 310.395193 
C 287.668401 310.395193 287.668401 310.395193 287.668401 310.395193 
C 287.668401 310.395193 287.668401 310.395193 287.668401 310.395193 
C 287.668401 310.395193 287.668401 310.395193 287.668401 310.395193 
C 287.668401 310.395193 287.668401 310.395193 287.668401 310.395193 
C 287.668401 310.395193 287.668401 310.395193 287.668401 310.395193 
z
" style="fill: #ffffff"/>
   </g>
   <g id="matplotlib.axis_1">
    <g id="xtick_1">
     <g id="line2d_1">
      <path d="M 287.668401 310.395193 
L 287.668401 72.863782 
" clip-path="url(#p61197a5633)" style="fill: none; stroke-dasharray: 0.8,1.32; stroke-dashoffset: 0; stroke: #d3d3d3; stroke-width: 0.8"/>
     </g>
     <g id="text_1">
      <!-- change_bush_color -->
      <g style="fill: #262626" transform="translate(234.43012 56.246126) scale(0.11 -0.11)">
       <defs>
        <path id="DejaVuSerif-63" d="M 3291 997 
Q 3169 466 2822 187 
Q 2475 -91 1925 -91 
Q 1200 -91 759 389 
Q 319 869 319 1663 
Q 319 2459 759 2936 
Q 1200 3413 1925 3413 
Q 2241 3413 2553 3339 
Q 2866 3266 3181 3116 
L 3181 2266 
L 2847 2266 
Q 2781 2703 2561 2903 
Q 2341 3103 1931 3103 
Q 1466 3103 1228 2742 
Q 991 2381 991 1663 
Q 991 944 1227 581 
Q 1463 219 1931 219 
Q 2303 219 2525 412 
Q 2747 606 2828 997 
L 3291 997 
z
" transform="scale(0.015625)"/>
        <path id="DejaVuSerif-68" d="M 263 0 
L 263 331 
L 781 331 
L 781 4531 
L 231 4531 
L 231 4863 
L 1356 4863 
L 1356 2731 
Q 1516 3069 1770 3241 
Q 2025 3413 2363 3413 
Q 2913 3413 3172 3097 
Q 3431 2781 3431 2113 
L 3431 331 
L 3944 331 
L 3944 0 
L 2356 0 
L 2356 331 
L 2853 331 
L 2853 1931 
Q 2853 2541 2704 2764 
Q 2556 2988 2175 2988 
Q 1775 2988 1565 2697 
Q 1356 2406 1356 1850 
L 1356 331 
L 1856 331 
L 1856 0 
L 263 0 
z
" transform="scale(0.015625)"/>
        <path id="DejaVuSerif-61" d="M 2547 1044 
L 2547 1747 
L 1806 1747 
Q 1378 1747 1168 1562 
Q 959 1378 959 997 
Q 959 650 1171 447 
Q 1384 244 1747 244 
Q 2106 244 2326 466 
Q 2547 688 2547 1044 
z
M 3122 2075 
L 3122 331 
L 3634 331 
L 3634 0 
L 2547 0 
L 2547 359 
Q 2356 128 2106 18 
Q 1856 -91 1522 -91 
Q 969 -91 644 203 
Q 319 497 319 997 
Q 319 1513 691 1797 
Q 1063 2081 1741 2081 
L 2547 2081 
L 2547 2309 
Q 2547 2688 2317 2895 
Q 2088 3103 1672 3103 
Q 1328 3103 1125 2947 
Q 922 2791 872 2484 
L 575 2484 
L 575 3156 
Q 875 3284 1158 3348 
Q 1441 3413 1709 3413 
Q 2400 3413 2761 3070 
Q 3122 2728 3122 2075 
z
" transform="scale(0.015625)"/>
        <path id="DejaVuSerif-6e" d="M 263 0 
L 263 331 
L 781 331 
L 781 2988 
L 231 2988 
L 231 3322 
L 1356 3322 
L 1356 2731 
Q 1516 3069 1770 3241 
Q 2025 3413 2363 3413 
Q 2913 3413 3172 3097 
Q 3431 2781 3431 2113 
L 3431 331 
L 3944 331 
L 3944 0 
L 2356 0 
L 2356 331 
L 2853 331 
L 2853 1931 
Q 2853 2541 2703 2767 
Q 2553 2994 2175 2994 
Q 1775 2994 1565 2701 
Q 1356 2409 1356 1850 
L 1356 331 
L 1856 331 
L 1856 0 
L 263 0 
z
" transform="scale(0.015625)"/>
        <path id="DejaVuSerif-67" d="M 3359 2988 
L 3359 72 
Q 3359 -644 2965 -1033 
Q 2572 -1422 1844 -1422 
Q 1516 -1422 1216 -1362 
Q 916 -1303 641 -1184 
L 641 -488 
L 941 -488 
Q 997 -813 1206 -963 
Q 1416 -1113 1806 -1113 
Q 2313 -1113 2548 -827 
Q 2784 -541 2784 72 
L 2784 519 
Q 2616 206 2355 57 
Q 2094 -91 1709 -91 
Q 1097 -91 708 395 
Q 319 881 319 1663 
Q 319 2444 706 2928 
Q 1094 3413 1709 3413 
Q 2094 3413 2355 3264 
Q 2616 3116 2784 2803 
L 2784 3322 
L 3909 3322 
L 3909 2988 
L 3359 2988 
z
M 2784 1825 
Q 2784 2422 2554 2737 
Q 2325 3053 1888 3053 
Q 1444 3053 1217 2703 
Q 991 2353 991 1663 
Q 991 975 1217 622 
Q 1444 269 1888 269 
Q 2325 269 2554 583 
Q 2784 897 2784 1497 
L 2784 1825 
z
" transform="scale(0.015625)"/>
        <path id="DejaVuSerif-65" d="M 3469 1600 
L 991 1600 
L 991 1575 
Q 991 903 1244 561 
Q 1497 219 1991 219 
Q 2369 219 2611 417 
Q 2853 616 2950 1006 
L 3413 1006 
Q 3275 459 2904 184 
Q 2534 -91 1931 -91 
Q 1203 -91 761 389 
Q 319 869 319 1663 
Q 319 2450 753 2931 
Q 1188 3413 1894 3413 
Q 2647 3413 3050 2948 
Q 3453 2484 3469 1600 
z
M 2791 1931 
Q 2772 2513 2545 2808 
Q 2319 3103 1894 3103 
Q 1497 3103 1269 2806 
Q 1041 2509 991 1931 
L 2791 1931 
z
" transform="scale(0.015625)"/>
        <path id="DejaVuSerif-5f" d="M 3200 -1259 
L 3200 -1509 
L 0 -1509 
L 0 -1259 
L 3200 -1259 
z
" transform="scale(0.015625)"/>
        <path id="DejaVuSerif-62" d="M 738 331 
L 738 4531 
L 184 4531 
L 184 4863 
L 1313 4863 
L 1313 2803 
Q 1481 3116 1742 3264 
Q 2003 3413 2388 3413 
Q 3000 3413 3387 2928 
Q 3775 2444 3775 1663 
Q 3775 881 3387 395 
Q 3000 -91 2388 -91 
Q 2003 -91 1742 57 
Q 1481 206 1313 519 
L 1313 0 
L 184 0 
L 184 331 
L 738 331 
z
M 1313 1497 
Q 1313 897 1542 583 
Q 1772 269 2209 269 
Q 2650 269 2876 622 
Q 3103 975 3103 1663 
Q 3103 2353 2876 2703 
Q 2650 3053 2209 3053 
Q 1772 3053 1542 2737 
Q 1313 2422 1313 1825 
L 1313 1497 
z
" transform="scale(0.015625)"/>
        <path id="DejaVuSerif-75" d="M 2266 3322 
L 3341 3322 
L 3341 331 
L 3884 331 
L 3884 0 
L 2766 0 
L 2766 588 
Q 2606 256 2353 82 
Q 2100 -91 1766 -91 
Q 1213 -91 952 223 
Q 691 538 691 1209 
L 691 2988 
L 172 2988 
L 172 3322 
L 1269 3322 
L 1269 1388 
Q 1269 781 1417 556 
Q 1566 331 1947 331 
Q 2347 331 2556 625 
Q 2766 919 2766 1478 
L 2766 2988 
L 2266 2988 
L 2266 3322 
z
" transform="scale(0.015625)"/>
        <path id="DejaVuSerif-73" d="M 359 184 
L 359 959 
L 691 959 
Q 703 588 923 403 
Q 1144 219 1575 219 
Q 1963 219 2166 364 
Q 2369 509 2369 788 
Q 2369 1006 2220 1140 
Q 2072 1275 1594 1428 
L 1178 1569 
Q 750 1706 558 1912 
Q 366 2119 366 2438 
Q 366 2894 700 3153 
Q 1034 3413 1625 3413 
Q 1888 3413 2178 3344 
Q 2469 3275 2778 3144 
L 2778 2419 
L 2447 2419 
Q 2434 2741 2221 2922 
Q 2009 3103 1644 3103 
Q 1281 3103 1095 2975 
Q 909 2847 909 2591 
Q 909 2381 1050 2254 
Q 1191 2128 1613 1997 
L 2069 1856 
Q 2541 1709 2748 1489 
Q 2956 1269 2956 922 
Q 2956 450 2595 179 
Q 2234 -91 1600 -91 
Q 1278 -91 972 -22 
Q 666 47 359 184 
z
" transform="scale(0.015625)"/>
        <path id="DejaVuSerif-6f" d="M 1925 219 
Q 2388 219 2623 584 
Q 2859 950 2859 1663 
Q 2859 2375 2623 2739 
Q 2388 3103 1925 3103 
Q 1463 3103 1227 2739 
Q 991 2375 991 1663 
Q 991 950 1228 584 
Q 1466 219 1925 219 
z
M 1925 -91 
Q 1200 -91 759 389 
Q 319 869 319 1663 
Q 319 2456 758 2934 
Q 1197 3413 1925 3413 
Q 2653 3413 3092 2934 
Q 3531 2456 3531 1663 
Q 3531 869 3092 389 
Q 2653 -91 1925 -91 
z
" transform="scale(0.015625)"/>
        <path id="DejaVuSerif-6c" d="M 1313 331 
L 1856 331 
L 1856 0 
L 184 0 
L 184 331 
L 738 331 
L 738 4531 
L 184 4531 
L 184 4863 
L 1313 4863 
L 1313 331 
z
" transform="scale(0.015625)"/>
        <path id="DejaVuSerif-72" d="M 3059 3328 
L 3059 2497 
L 2728 2497 
Q 2713 2744 2591 2866 
Q 2469 2988 2234 2988 
Q 1809 2988 1582 2694 
Q 1356 2400 1356 1850 
L 1356 331 
L 2022 331 
L 2022 0 
L 263 0 
L 263 331 
L 781 331 
L 781 2994 
L 231 2994 
L 231 3322 
L 1356 3322 
L 1356 2731 
Q 1525 3078 1790 3245 
Q 2056 3413 2438 3413 
Q 2578 3413 2733 3391 
Q 2888 3369 3059 3328 
z
" transform="scale(0.015625)"/>
       </defs>
       <use xlink:href="#DejaVuSerif-63"/>
       <use xlink:href="#DejaVuSerif-68" x="56.005859"/>
       <use xlink:href="#DejaVuSerif-61" x="120.410156"/>
       <use xlink:href="#DejaVuSerif-6e" x="180.029297"/>
       <use xlink:href="#DejaVuSerif-67" x="244.433594"/>
       <use xlink:href="#DejaVuSerif-65" x="308.447266"/>
       <use xlink:href="#DejaVuSerif-5f" x="367.626953"/>
       <use xlink:href="#DejaVuSerif-62" x="417.626953"/>
       <use xlink:href="#DejaVuSerif-75" x="481.640625"/>
       <use xlink:href="#DejaVuSerif-73" x="546.044922"/>
       <use xlink:href="#DejaVuSerif-68" x="597.363281"/>
       <use xlink:href="#DejaVuSerif-5f" x="661.767578"/>
       <use xlink:href="#DejaVuSerif-63" x="711.767578"/>
       <use xlink:href="#DejaVuSerif-6f" x="767.773438"/>
       <use xlink:href="#DejaVuSerif-6c" x="827.978516"/>
       <use xlink:href="#DejaVuSerif-6f" x="859.960938"/>
       <use xlink:href="#DejaVuSerif-72" x="920.166016"/>
      </g>
     </g>
    </g>
    <g id="xtick_2">
     <g id="line2d_2">
      <path d="M 287.668401 310.395193 
L 440.350649 128.435576 
" clip-path="url(#p61197a5633)" style="fill: none; stroke-dasharray: 0.8,1.32; stroke-dashoffset: 0; stroke: #d3d3d3; stroke-width: 0.8"/>
     </g>
     <g id="text_2">
      <!-- eat_bush -->
      <g style="fill: #262626" transform="translate(427.962273 116.380053) scale(0.11 -0.11)">
       <defs>
        <path id="DejaVuSerif-74" d="M 691 2988 
L 184 2988 
L 184 3322 
L 691 3322 
L 691 4353 
L 1269 4353 
L 1269 3322 
L 2350 3322 
L 2350 2988 
L 1269 2988 
L 1269 878 
Q 1269 456 1350 337 
Q 1431 219 1650 219 
Q 1875 219 1978 351 
Q 2081 484 2088 781 
L 2522 781 
Q 2497 328 2275 118 
Q 2053 -91 1600 -91 
Q 1103 -91 897 129 
Q 691 350 691 878 
L 691 2988 
z
" transform="scale(0.015625)"/>
       </defs>
       <use xlink:href="#DejaVuSerif-65"/>
       <use xlink:href="#DejaVuSerif-61" x="59.179688"/>
       <use xlink:href="#DejaVuSerif-74" x="118.798828"/>
       <use xlink:href="#DejaVuSerif-5f" x="158.984375"/>
       <use xlink:href="#DejaVuSerif-62" x="208.984375"/>
       <use xlink:href="#DejaVuSerif-75" x="272.998047"/>
       <use xlink:href="#DejaVuSerif-73" x="337.402344"/>
       <use xlink:href="#DejaVuSerif-68" x="388.720703"/>
      </g>
     </g>
    </g>
    <g id="xtick_3">
     <g id="line2d_3">
      <path d="M 287.668401 310.395193 
L 521.591176 269.148296 
" clip-path="url(#p61197a5633)" style="fill: none; stroke-dasharray: 0.8,1.32; stroke-dashoffset: 0; stroke: #d3d3d3; stroke-width: 0.8"/>
     </g>
     <g id="text_3">
      <!-- interact_with_nearby_player -->
      <g style="fill: #262626" transform="translate(461.474614 268.6445) scale(0.11 -0.11)">
       <defs>
        <path id="DejaVuSerif-69" d="M 622 4353 
Q 622 4497 726 4603 
Q 831 4709 978 4709 
Q 1122 4709 1226 4603 
Q 1331 4497 1331 4353 
Q 1331 4206 1228 4103 
Q 1125 4000 978 4000 
Q 831 4000 726 4103 
Q 622 4206 622 4353 
z
M 1356 331 
L 1900 331 
L 1900 0 
L 231 0 
L 231 331 
L 781 331 
L 781 2988 
L 231 2988 
L 231 3322 
L 1356 3322 
L 1356 331 
z
" transform="scale(0.015625)"/>
        <path id="DejaVuSerif-77" d="M 3072 3322 
L 3922 728 
L 4672 2988 
L 4191 2988 
L 4191 3322 
L 5394 3322 
L 5394 2988 
L 5025 2988 
L 4038 0 
L 3559 0 
L 2741 2484 
L 1919 0 
L 1459 0 
L 475 2988 
L 103 2988 
L 103 3322 
L 1606 3322 
L 1606 2988 
L 1069 2988 
L 1813 728 
L 2669 3322 
L 3072 3322 
z
" transform="scale(0.015625)"/>
        <path id="DejaVuSerif-79" d="M 1381 -609 
L 1600 -56 
L 359 2988 
L -19 2988 
L -19 3322 
L 1509 3322 
L 1509 2988 
L 978 2988 
L 1913 703 
L 2847 2988 
L 2350 2988 
L 2350 3322 
L 3597 3322 
L 3597 2988 
L 3225 2988 
L 1703 -750 
Q 1547 -1138 1356 -1280 
Q 1166 -1422 819 -1422 
Q 672 -1422 517 -1397 
Q 363 -1372 206 -1325 
L 206 -691 
L 500 -691 
Q 519 -903 608 -995 
Q 697 -1088 884 -1088 
Q 1056 -1088 1161 -992 
Q 1266 -897 1381 -609 
z
" transform="scale(0.015625)"/>
        <path id="DejaVuSerif-70" d="M 1313 1825 
L 1313 1497 
Q 1313 897 1542 583 
Q 1772 269 2209 269 
Q 2650 269 2876 622 
Q 3103 975 3103 1663 
Q 3103 2353 2876 2703 
Q 2650 3053 2209 3053 
Q 1772 3053 1542 2737 
Q 1313 2422 1313 1825 
z
M 738 2988 
L 184 2988 
L 184 3322 
L 1313 3322 
L 1313 2803 
Q 1481 3116 1742 3264 
Q 2003 3413 2388 3413 
Q 3000 3413 3387 2928 
Q 3775 2444 3775 1663 
Q 3775 881 3387 395 
Q 3000 -91 2388 -91 
Q 2003 -91 1742 57 
Q 1481 206 1313 519 
L 1313 -997 
L 1856 -997 
L 1856 -1331 
L 184 -1331 
L 184 -997 
L 738 -997 
L 738 2988 
z
" transform="scale(0.015625)"/>
       </defs>
       <use xlink:href="#DejaVuSerif-69"/>
       <use xlink:href="#DejaVuSerif-6e" x="31.982422"/>
       <use xlink:href="#DejaVuSerif-74" x="96.386719"/>
       <use xlink:href="#DejaVuSerif-65" x="136.572266"/>
       <use xlink:href="#DejaVuSerif-72" x="195.751953"/>
       <use xlink:href="#DejaVuSerif-61" x="243.554688"/>
       <use xlink:href="#DejaVuSerif-63" x="303.173828"/>
       <use xlink:href="#DejaVuSerif-74" x="359.179688"/>
       <use xlink:href="#DejaVuSerif-5f" x="399.365234"/>
       <use xlink:href="#DejaVuSerif-77" x="449.365234"/>
       <use xlink:href="#DejaVuSerif-69" x="534.960938"/>
       <use xlink:href="#DejaVuSerif-74" x="566.943359"/>
       <use xlink:href="#DejaVuSerif-68" x="607.128906"/>
       <use xlink:href="#DejaVuSerif-5f" x="671.533203"/>
       <use xlink:href="#DejaVuSerif-6e" x="721.533203"/>
       <use xlink:href="#DejaVuSerif-65" x="785.9375"/>
       <use xlink:href="#DejaVuSerif-61" x="845.117188"/>
       <use xlink:href="#DejaVuSerif-72" x="904.736328"/>
       <use xlink:href="#DejaVuSerif-62" x="952.539062"/>
       <use xlink:href="#DejaVuSerif-79" x="1016.552734"/>
       <use xlink:href="#DejaVuSerif-5f" x="1073.046875"/>
       <use xlink:href="#DejaVuSerif-70" x="1123.046875"/>
       <use xlink:href="#DejaVuSerif-6c" x="1187.060547"/>
       <use xlink:href="#DejaVuSerif-61" x="1219.042969"/>
       <use xlink:href="#DejaVuSerif-79" x="1278.662109"/>
       <use xlink:href="#DejaVuSerif-65" x="1335.15625"/>
       <use xlink:href="#DejaVuSerif-72" x="1394.335938"/>
      </g>
     </g>
    </g>
    <g id="xtick_4">
     <g id="line2d_4">
      <path d="M 287.668401 310.395193 
L 493.376637 429.160898 
" clip-path="url(#p61197a5633)" style="fill: none; stroke-dasharray: 0.8,1.32; stroke-dashoffset: 0; stroke: #d3d3d3; stroke-width: 0.8"/>
     </g>
     <g id="text_4">
      <!-- move_down -->
      <g style="fill: #262626" transform="translate(477.54257 441.793242) scale(0.11 -0.11)">
       <defs>
        <path id="DejaVuSerif-6d" d="M 3316 2675 
Q 3481 3041 3739 3227 
Q 3997 3413 4341 3413 
Q 4863 3413 5119 3089 
Q 5375 2766 5375 2113 
L 5375 331 
L 5894 331 
L 5894 0 
L 4300 0 
L 4300 331 
L 4800 331 
L 4800 2047 
Q 4800 2556 4650 2772 
Q 4500 2988 4153 2988 
Q 3769 2988 3567 2697 
Q 3366 2406 3366 1850 
L 3366 331 
L 3866 331 
L 3866 0 
L 2291 0 
L 2291 331 
L 2791 331 
L 2791 2069 
Q 2791 2566 2641 2777 
Q 2491 2988 2144 2988 
Q 1759 2988 1557 2697 
Q 1356 2406 1356 1850 
L 1356 331 
L 1856 331 
L 1856 0 
L 263 0 
L 263 331 
L 781 331 
L 781 2994 
L 231 2994 
L 231 3322 
L 1356 3322 
L 1356 2731 
Q 1516 3063 1762 3238 
Q 2009 3413 2322 3413 
Q 2709 3413 2968 3220 
Q 3228 3028 3316 2675 
z
" transform="scale(0.015625)"/>
        <path id="DejaVuSerif-76" d="M 1581 0 
L 359 2988 
L -19 2988 
L -19 3322 
L 1509 3322 
L 1509 2988 
L 978 2988 
L 1913 703 
L 2847 2988 
L 2350 2988 
L 2350 3322 
L 3597 3322 
L 3597 2988 
L 3225 2988 
L 2003 0 
L 1581 0 
z
" transform="scale(0.015625)"/>
        <path id="DejaVuSerif-64" d="M 3359 331 
L 3909 331 
L 3909 0 
L 2784 0 
L 2784 519 
Q 2616 206 2355 57 
Q 2094 -91 1709 -91 
Q 1097 -91 708 395 
Q 319 881 319 1663 
Q 319 2444 706 2928 
Q 1094 3413 1709 3413 
Q 2094 3413 2355 3264 
Q 2616 3116 2784 2803 
L 2784 4531 
L 2241 4531 
L 2241 4863 
L 3359 4863 
L 3359 331 
z
M 2784 1497 
L 2784 1825 
Q 2784 2422 2554 2737 
Q 2325 3053 1888 3053 
Q 1444 3053 1217 2703 
Q 991 2353 991 1663 
Q 991 975 1217 622 
Q 1444 269 1888 269 
Q 2325 269 2554 583 
Q 2784 897 2784 1497 
z
" transform="scale(0.015625)"/>
       </defs>
       <use xlink:href="#DejaVuSerif-6d"/>
       <use xlink:href="#DejaVuSerif-6f" x="94.824219"/>
       <use xlink:href="#DejaVuSerif-76" x="155.029297"/>
       <use xlink:href="#DejaVuSerif-65" x="211.523438"/>
       <use xlink:href="#DejaVuSerif-5f" x="270.703125"/>
       <use xlink:href="#DejaVuSerif-64" x="320.703125"/>
       <use xlink:href="#DejaVuSerif-6f" x="384.716797"/>
       <use xlink:href="#DejaVuSerif-77" x="444.921875"/>
       <use xlink:href="#DejaVuSerif-6e" x="530.517578"/>
      </g>
     </g>
    </g>
    <g id="xtick_5">
     <g id="line2d_5">
      <path d="M 287.668401 310.395193 
L 368.908928 533.601706 
" clip-path="url(#p61197a5633)" style="fill: none; stroke-dasharray: 0.8,1.32; stroke-dashoffset: 0; stroke: #d3d3d3; stroke-width: 0.8"/>
     </g>
     <g id="text_5">
      <!-- move_left -->
      <g style="fill: #262626" transform="translate(348.678165 554.808056) scale(0.11 -0.11)">
       <defs>
        <path id="DejaVuSerif-66" d="M 2753 4078 
L 2450 4078 
Q 2447 4313 2317 4434 
Q 2188 4556 1941 4556 
Q 1619 4556 1487 4379 
Q 1356 4203 1356 3750 
L 1356 3322 
L 2284 3322 
L 2284 2988 
L 1356 2988 
L 1356 331 
L 2094 331 
L 2094 0 
L 231 0 
L 231 331 
L 781 331 
L 781 2988 
L 231 2988 
L 231 3322 
L 781 3322 
L 781 3738 
Q 781 4294 1070 4578 
Q 1359 4863 1919 4863 
Q 2128 4863 2337 4825 
Q 2547 4788 2753 4709 
L 2753 4078 
z
" transform="scale(0.015625)"/>
       </defs>
       <use xlink:href="#DejaVuSerif-6d"/>
       <use xlink:href="#DejaVuSerif-6f" x="94.824219"/>
       <use xlink:href="#DejaVuSerif-76" x="155.029297"/>
       <use xlink:href="#DejaVuSerif-65" x="211.523438"/>
       <use xlink:href="#DejaVuSerif-5f" x="270.703125"/>
       <use xlink:href="#DejaVuSerif-6c" x="320.703125"/>
       <use xlink:href="#DejaVuSerif-65" x="352.685547"/>
       <use xlink:href="#DejaVuSerif-66" x="411.865234"/>
       <use xlink:href="#DejaVuSerif-74" x="448.876953"/>
      </g>
     </g>
    </g>
    <g id="xtick_6">
     <g id="line2d_6">
      <path d="M 287.668401 310.395193 
L 206.427874 533.601706 
" clip-path="url(#p61197a5633)" style="fill: none; stroke-dasharray: 0.8,1.32; stroke-dashoffset: 0; stroke: #d3d3d3; stroke-width: 0.8"/>
     </g>
     <g id="text_6">
      <!-- move_right -->
      <g style="fill: #262626" transform="translate(168.457465 554.808056) scale(0.11 -0.11)">
       <use xlink:href="#DejaVuSerif-6d"/>
       <use xlink:href="#DejaVuSerif-6f" x="94.824219"/>
       <use xlink:href="#DejaVuSerif-76" x="155.029297"/>
       <use xlink:href="#DejaVuSerif-65" x="211.523438"/>
       <use xlink:href="#DejaVuSerif-5f" x="270.703125"/>
       <use xlink:href="#DejaVuSerif-72" x="320.703125"/>
       <use xlink:href="#DejaVuSerif-69" x="368.505859"/>
       <use xlink:href="#DejaVuSerif-67" x="400.488281"/>
       <use xlink:href="#DejaVuSerif-68" x="464.501953"/>
       <use xlink:href="#DejaVuSerif-74" x="528.90625"/>
      </g>
     </g>
    </g>
    <g id="xtick_7">
     <g id="line2d_7">
      <path d="M 287.668401 310.395193 
L 81.960165 429.160898 
" clip-path="url(#p61197a5633)" style="fill: none; stroke-dasharray: 0.8,1.32; stroke-dashoffset: 0; stroke: #d3d3d3; stroke-width: 0.8"/>
     </g>
     <g id="text_7">
      <!-- move_up -->
      <g style="fill: #262626" transform="translate(40.369935 441.640273) scale(0.11 -0.11)">
       <use xlink:href="#DejaVuSerif-6d"/>
       <use xlink:href="#DejaVuSerif-6f" x="94.824219"/>
       <use xlink:href="#DejaVuSerif-76" x="155.029297"/>
       <use xlink:href="#DejaVuSerif-65" x="211.523438"/>
       <use xlink:href="#DejaVuSerif-5f" x="270.703125"/>
       <use xlink:href="#DejaVuSerif-75" x="320.703125"/>
       <use xlink:href="#DejaVuSerif-70" x="385.107422"/>
      </g>
     </g>
    </g>
    <g id="xtick_8">
     <g id="line2d_8">
      <path d="M 287.668401 310.395193 
L 53.745626 269.148296 
" clip-path="url(#p61197a5633)" style="fill: none; stroke-dasharray: 0.8,1.32; stroke-dashoffset: 0; stroke: #d3d3d3; stroke-width: 0.8"/>
     </g>
     <g id="text_8">
      <!-- ripe_bush -->
      <g style="fill: #262626" transform="translate(7.2 268.6445) scale(0.11 -0.11)">
       <use xlink:href="#DejaVuSerif-72"/>
       <use xlink:href="#DejaVuSerif-69" x="47.802734"/>
       <use xlink:href="#DejaVuSerif-70" x="79.785156"/>
       <use xlink:href="#DejaVuSerif-65" x="143.798828"/>
       <use xlink:href="#DejaVuSerif-5f" x="202.978516"/>
       <use xlink:href="#DejaVuSerif-62" x="252.978516"/>
       <use xlink:href="#DejaVuSerif-75" x="316.992188"/>
       <use xlink:href="#DejaVuSerif-73" x="381.396484"/>
       <use xlink:href="#DejaVuSerif-68" x="432.714844"/>
      </g>
     </g>
    </g>
    <g id="xtick_9">
     <g id="line2d_9">
      <path d="M 287.668401 310.395193 
L 134.986153 128.435576 
" clip-path="url(#p61197a5633)" style="fill: none; stroke-dasharray: 0.8,1.32; stroke-dashoffset: 0; stroke: #d3d3d3; stroke-width: 0.8"/>
     </g>
     <g id="text_9">
      <!-- stay -->
      <g style="fill: #262626" transform="translate(111.03242 116.376615) scale(0.11 -0.11)">
       <use xlink:href="#DejaVuSerif-73"/>
       <use xlink:href="#DejaVuSerif-74" x="51.318359"/>
       <use xlink:href="#DejaVuSerif-61" x="91.503906"/>
       <use xlink:href="#DejaVuSerif-79" x="151.123047"/>
      </g>
     </g>
    </g>
   </g>
   <g id="matplotlib.axis_2">
    <g id="ytick_1">
     <g id="line2d_10">
      <path d="M 287.668401 310.395193 
C 287.668401 310.395193 287.668401 310.395193 287.668401 310.395193 
C 287.668401 310.395193 287.668401 310.395193 287.668401 310.395193 
C 287.668401 310.395193 287.668401 310.395193 287.668401 310.395193 
C 287.668401 310.395193 287.668401 310.395193 287.668401 310.395193 
C 287.668401 310.395193 287.668401 310.395193 287.668401 310.395193 
C 287.668401 310.395193 287.668401 310.395193 287.668401 310.395193 
C 287.668401 310.395193 287.668401 310.395193 287.668401 310.395193 
C 287.668401 310.395193 287.668401 310.395193 287.668401 310.395193 
C 287.668401 310.395193 287.668401 310.395193 287.668401 310.395193 
C 287.668401 310.395193 287.668401 310.395193 287.668401 310.395193 
C 287.668401 310.395193 287.668401 310.395193 287.668401 310.395193 
C 287.668401 310.395193 287.668401 310.395193 287.668401 310.395193 
C 287.668401 310.395193 287.668401 310.395193 287.668401 310.395193 
C 287.668401 310.395193 287.668401 310.395193 287.668401 310.395193 
C 287.668401 310.395193 287.668401 310.395193 287.668401 310.395193 
C 287.668401 310.395193 287.668401 310.395193 287.668401 310.395193 
" clip-path="url(#p61197a5633)" style="fill: none; stroke-dasharray: 0.8,1.32; stroke-dashoffset: 0; stroke: #d3d3d3; stroke-width: 0.8"/>
     </g>
     <g id="text_10">
      <!-- 0% -->
      <g style="fill: #808080" transform="translate(287.668401 308.523474) scale(0.09 -0.09)">
       <defs>
        <path id="DejaVuSerif-30" d="M 2034 219 
Q 2513 219 2750 744 
Q 2988 1269 2988 2328 
Q 2988 3391 2750 3916 
Q 2513 4441 2034 4441 
Q 1556 4441 1318 3916 
Q 1081 3391 1081 2328 
Q 1081 1269 1318 744 
Q 1556 219 2034 219 
z
M 2034 -91 
Q 1275 -91 848 546 
Q 422 1184 422 2328 
Q 422 3475 848 4112 
Q 1275 4750 2034 4750 
Q 2797 4750 3222 4112 
Q 3647 3475 3647 2328 
Q 3647 1184 3222 546 
Q 2797 -91 2034 -91 
z
" transform="scale(0.015625)"/>
        <path id="DejaVuSerif-25" d="M 1434 4459 
Q 1159 4459 1004 4200 
Q 850 3941 850 3475 
Q 850 3016 1008 2753 
Q 1166 2491 1434 2491 
Q 1700 2491 1854 2752 
Q 2009 3013 2009 3475 
Q 2009 3938 1854 4198 
Q 1700 4459 1434 4459 
z
M 4653 2169 
Q 4381 2169 4226 1906 
Q 4072 1644 4072 1178 
Q 4072 719 4228 458 
Q 4384 197 4653 197 
Q 4922 197 5075 458 
Q 5228 719 5228 1178 
Q 5228 1641 5073 1905 
Q 4919 2169 4653 2169 
z
M 4653 2450 
Q 5147 2450 5437 2106 
Q 5728 1763 5728 1178 
Q 5728 594 5436 251 
Q 5144 -91 4653 -91 
Q 4153 -91 3862 251 
Q 3572 594 3572 1178 
Q 3572 1766 3864 2108 
Q 4156 2450 4653 2450 
z
M 4263 4750 
L 4738 4750 
L 1819 -91 
L 1344 -91 
L 4263 4750 
z
M 1428 4750 
Q 1922 4750 2215 4408 
Q 2509 4066 2509 3481 
Q 2509 2891 2217 2550 
Q 1925 2209 1428 2209 
Q 931 2209 642 2551 
Q 353 2894 353 3481 
Q 353 4063 643 4406 
Q 934 4750 1428 4750 
z
" transform="scale(0.015625)"/>
       </defs>
       <use xlink:href="#DejaVuSerif-30"/>
       <use xlink:href="#DejaVuSerif-25" x="63.623047"/>
      </g>
     </g>
    </g>
    <g id="ytick_2">
     <g id="line2d_11">
      <path d="M 287.668401 256.410781 
C 294.757569 256.410781 301.777804 257.807193 308.327341 260.5201 
C 314.876878 263.233007 320.828346 267.209651 325.841144 272.222449 
C 330.853943 277.235248 334.830587 283.186716 337.543494 289.736253 
C 340.256401 296.28579 341.652812 303.306025 341.652812 310.395193 
C 341.652812 317.484361 340.256401 324.504595 337.543494 331.054133 
C 334.830587 337.60367 330.853943 343.555137 325.841144 348.567936 
C 320.828346 353.580735 314.876878 357.557378 308.327341 360.270286 
C 301.777804 362.983193 294.757569 364.379604 287.668401 364.379604 
C 280.579233 364.379604 273.558998 362.983193 267.009461 360.270286 
C 260.459924 357.557378 254.508456 353.580735 249.495657 348.567936 
C 244.482859 343.555137 240.506215 337.60367 237.793308 331.054133 
C 235.080401 324.504595 233.683989 317.484361 233.683989 310.395193 
C 233.683989 303.306025 235.080401 296.28579 237.793308 289.736253 
C 240.506215 283.186716 244.482859 277.235248 249.495657 272.222449 
C 254.508456 267.209651 260.459924 263.233007 267.009461 260.5201 
C 273.558998 257.807193 280.579233 256.410781 287.668401 256.410781 
" clip-path="url(#p61197a5633)" style="fill: none; stroke-dasharray: 0.8,1.32; stroke-dashoffset: 0; stroke: #d3d3d3; stroke-width: 0.8"/>
     </g>
     <g id="text_11">
      <!-- 16% -->
      <g style="fill: #808080" transform="translate(308.327341 258.648381) scale(0.09 -0.09)">
       <defs>
        <path id="DejaVuSerif-31" d="M 909 0 
L 909 331 
L 1722 331 
L 1722 4213 
L 781 3603 
L 781 4013 
L 1919 4750 
L 2350 4750 
L 2350 331 
L 3163 331 
L 3163 0 
L 909 0 
z
" transform="scale(0.015625)"/>
        <path id="DejaVuSerif-36" d="M 2094 219 
Q 2534 219 2771 542 
Q 3009 866 3009 1472 
Q 3009 2078 2771 2401 
Q 2534 2725 2094 2725 
Q 1647 2725 1412 2412 
Q 1178 2100 1178 1509 
Q 1178 888 1415 553 
Q 1653 219 2094 219 
z
M 1075 2569 
Q 1288 2803 1556 2918 
Q 1825 3034 2163 3034 
Q 2859 3034 3264 2615 
Q 3669 2197 3669 1472 
Q 3669 763 3233 336 
Q 2797 -91 2069 -91 
Q 1278 -91 853 498 
Q 428 1088 428 2181 
Q 428 3406 931 4078 
Q 1434 4750 2350 4750 
Q 2597 4750 2869 4703 
Q 3141 4656 3425 4563 
L 3425 3794 
L 3072 3794 
Q 3034 4109 2831 4275 
Q 2628 4441 2284 4441 
Q 1678 4441 1381 3981 
Q 1084 3522 1075 2569 
z
" transform="scale(0.015625)"/>
       </defs>
       <use xlink:href="#DejaVuSerif-31"/>
       <use xlink:href="#DejaVuSerif-36" x="63.623047"/>
       <use xlink:href="#DejaVuSerif-25" x="127.246094"/>
      </g>
     </g>
    </g>
    <g id="ytick_3">
     <g id="line2d_12">
      <path d="M 287.668401 202.42637 
C 301.846737 202.42637 315.887206 205.219193 328.986281 210.645007 
C 342.085355 216.070821 353.98829 224.024108 364.013888 234.049706 
C 374.039485 244.075303 381.992772 255.978239 387.418587 269.077313 
C 392.844401 282.176387 395.637224 296.216857 395.637224 310.395193 
C 395.637224 324.573529 392.844401 338.613998 387.418587 351.713072 
C 381.992772 364.812147 374.039485 376.715082 364.013888 386.74068 
C 353.98829 396.766277 342.085355 404.719564 328.986281 410.145378 
C 315.887206 415.571193 301.846737 418.364016 287.668401 418.364016 
C 273.490065 418.364016 259.449596 415.571193 246.350521 410.145378 
C 233.251447 404.719564 221.348512 396.766277 211.322914 386.74068 
C 201.297317 376.715082 193.344029 364.812147 187.918215 351.713072 
C 182.492401 338.613998 179.699578 324.573529 179.699578 310.395193 
C 179.699578 296.216857 182.492401 282.176387 187.918215 269.077313 
C 193.344029 255.978239 201.297317 244.075303 211.322914 234.049706 
C 221.348512 224.024108 233.251447 216.070821 246.350521 210.645007 
C 259.449596 205.219193 273.490065 202.42637 287.668401 202.42637 
" clip-path="url(#p61197a5633)" style="fill: none; stroke-dasharray: 0.8,1.32; stroke-dashoffset: 0; stroke: #d3d3d3; stroke-width: 0.8"/>
     </g>
     <g id="text_12">
      <!-- 32% -->
      <g style="fill: #808080" transform="translate(328.986281 208.773288) scale(0.09 -0.09)">
       <defs>
        <path id="DejaVuSerif-33" d="M 622 4469 
Q 988 4606 1323 4678 
Q 1659 4750 1953 4750 
Q 2638 4750 3022 4454 
Q 3406 4159 3406 3634 
Q 3406 3213 3140 2930 
Q 2875 2647 2388 2547 
Q 2963 2466 3280 2130 
Q 3597 1794 3597 1259 
Q 3597 606 3158 257 
Q 2719 -91 1894 -91 
Q 1528 -91 1179 -12 
Q 831 66 488 225 
L 488 1131 
L 838 1131 
Q 869 681 1141 450 
Q 1413 219 1906 219 
Q 2384 219 2661 495 
Q 2938 772 2938 1253 
Q 2938 1803 2653 2086 
Q 2369 2369 1819 2369 
L 1522 2369 
L 1522 2688 
L 1678 2688 
Q 2225 2688 2498 2914 
Q 2772 3141 2772 3597 
Q 2772 4006 2547 4223 
Q 2322 4441 1900 4441 
Q 1478 4441 1245 4241 
Q 1013 4041 972 3647 
L 622 3647 
L 622 4469 
z
" transform="scale(0.015625)"/>
        <path id="DejaVuSerif-32" d="M 819 3553 
L 469 3553 
L 469 4384 
Q 803 4563 1142 4656 
Q 1481 4750 1806 4750 
Q 2534 4750 2956 4397 
Q 3378 4044 3378 3438 
Q 3378 2753 2422 1800 
Q 2347 1728 2309 1691 
L 1131 513 
L 3078 513 
L 3078 1088 
L 3444 1088 
L 3444 0 
L 434 0 
L 434 341 
L 1850 1753 
Q 2319 2222 2519 2614 
Q 2719 3006 2719 3438 
Q 2719 3909 2473 4175 
Q 2228 4441 1797 4441 
Q 1350 4441 1106 4219 
Q 863 3997 819 3553 
z
" transform="scale(0.015625)"/>
       </defs>
       <use xlink:href="#DejaVuSerif-33"/>
       <use xlink:href="#DejaVuSerif-32" x="63.623047"/>
       <use xlink:href="#DejaVuSerif-25" x="127.246094"/>
      </g>
     </g>
    </g>
    <g id="ytick_4">
     <g id="line2d_13">
      <path d="M 287.668401 148.441958 
C 308.935905 148.441958 329.996609 152.631193 349.645221 160.769914 
C 369.293832 168.908636 387.148235 180.838566 402.186631 195.876962 
C 417.225027 210.915359 429.154958 228.769761 437.293679 248.418373 
C 445.432401 268.066985 449.621635 289.127689 449.621635 310.395193 
C 449.621635 331.662697 445.432401 352.723401 437.293679 372.372012 
C 429.154958 392.020624 417.225027 409.875027 402.186631 424.913423 
C 387.148235 439.951819 369.293832 451.88175 349.645221 460.020471 
C 329.996609 468.159193 308.935905 472.348427 287.668401 472.348427 
C 266.400897 472.348427 245.340193 468.159193 225.691581 460.020471 
C 206.04297 451.88175 188.188567 439.951819 173.150171 424.913423 
C 158.111774 409.875027 146.181844 392.020624 138.043122 372.372012 
C 129.904401 352.723401 125.715166 331.662697 125.715166 310.395193 
C 125.715166 289.127689 129.904401 268.066985 138.043122 248.418373 
C 146.181844 228.769761 158.111774 210.915359 173.150171 195.876962 
C 188.188567 180.838566 206.04297 168.908636 225.691581 160.769914 
C 245.340193 152.631193 266.400897 148.441958 287.668401 148.441958 
" clip-path="url(#p61197a5633)" style="fill: none; stroke-dasharray: 0.8,1.32; stroke-dashoffset: 0; stroke: #d3d3d3; stroke-width: 0.8"/>
     </g>
     <g id="text_13">
      <!-- 48% -->
      <g style="fill: #808080" transform="translate(349.645221 158.898195) scale(0.09 -0.09)">
       <defs>
        <path id="DejaVuSerif-34" d="M 2234 1581 
L 2234 4063 
L 641 1581 
L 2234 1581 
z
M 3609 0 
L 1484 0 
L 1484 331 
L 2234 331 
L 2234 1247 
L 197 1247 
L 197 1588 
L 2241 4750 
L 2859 4750 
L 2859 1581 
L 3750 1581 
L 3750 1247 
L 2859 1247 
L 2859 331 
L 3609 331 
L 3609 0 
z
" transform="scale(0.015625)"/>
        <path id="DejaVuSerif-38" d="M 2981 1275 
Q 2981 1775 2732 2051 
Q 2484 2328 2034 2328 
Q 1584 2328 1336 2051 
Q 1088 1775 1088 1275 
Q 1088 772 1336 495 
Q 1584 219 2034 219 
Q 2484 219 2732 495 
Q 2981 772 2981 1275 
z
M 2853 3541 
Q 2853 3966 2637 4203 
Q 2422 4441 2034 4441 
Q 1650 4441 1433 4203 
Q 1216 3966 1216 3541 
Q 1216 3113 1433 2875 
Q 1650 2638 2034 2638 
Q 2422 2638 2637 2875 
Q 2853 3113 2853 3541 
z
M 2516 2484 
Q 3047 2413 3344 2092 
Q 3641 1772 3641 1275 
Q 3641 619 3225 264 
Q 2809 -91 2034 -91 
Q 1263 -91 845 264 
Q 428 619 428 1275 
Q 428 1772 725 2092 
Q 1022 2413 1556 2484 
Q 1084 2569 832 2842 
Q 581 3116 581 3541 
Q 581 4103 968 4426 
Q 1356 4750 2034 4750 
Q 2713 4750 3100 4426 
Q 3488 4103 3488 3541 
Q 3488 3116 3236 2842 
Q 2984 2569 2516 2484 
z
" transform="scale(0.015625)"/>
       </defs>
       <use xlink:href="#DejaVuSerif-34"/>
       <use xlink:href="#DejaVuSerif-38" x="63.623047"/>
       <use xlink:href="#DejaVuSerif-25" x="127.246094"/>
      </g>
     </g>
    </g>
    <g id="ytick_5">
     <g id="line2d_14">
      <path d="M 287.668401 94.457547 
C 316.025073 94.457547 344.106012 100.043193 370.30416 110.894821 
C 396.502309 121.74645 420.30818 137.653024 440.359375 157.704219 
C 460.41057 177.755414 476.317144 201.561284 487.168772 227.759433 
C 498.020401 253.957582 503.606047 282.038521 503.606047 310.395193 
C 503.606047 338.751865 498.020401 366.832804 487.168772 393.030952 
C 476.317144 419.229101 460.41057 443.034972 440.359375 463.086167 
C 420.30818 483.137361 396.502309 499.043936 370.30416 509.895564 
C 344.106012 520.747193 316.025073 526.332839 287.668401 526.332839 
C 259.311729 526.332839 231.23079 520.747193 205.032641 509.895564 
C 178.834493 499.043936 155.028622 483.137361 134.977427 463.086167 
C 114.926232 443.034972 99.019658 419.229101 88.168029 393.030952 
C 77.316401 366.832804 71.730755 338.751865 71.730755 310.395193 
C 71.730755 282.038521 77.316401 253.957582 88.168029 227.759433 
C 99.019658 201.561284 114.926232 177.755414 134.977427 157.704219 
C 155.028622 137.653024 178.834493 121.74645 205.032641 110.894821 
C 231.23079 100.043193 259.311729 94.457547 287.668401 94.457547 
" clip-path="url(#p61197a5633)" style="fill: none; stroke-dasharray: 0.8,1.32; stroke-dashoffset: 0; stroke: #d3d3d3; stroke-width: 0.8"/>
     </g>
     <g id="text_14">
      <!-- 64% -->
      <g style="fill: #808080" transform="translate(370.30416 109.023103) scale(0.09 -0.09)">
       <use xlink:href="#DejaVuSerif-36"/>
       <use xlink:href="#DejaVuSerif-34" x="63.623047"/>
       <use xlink:href="#DejaVuSerif-25" x="127.246094"/>
      </g>
     </g>
    </g>
   </g>
   <g id="patch_3">
    <path d="M 287.668401 305.404415 
L 307.677063 286.549797 
L 315.974851 305.404002 
L 288.425296 310.832186 
L 293.009205 325.068931 
L 281.834128 326.424726 
L 278.882453 315.467762 
L 75.011333 272.898014 
L 278.455651 299.415865 
z
" clip-path="url(#p61197a5633)" style="fill: #f7d4d6; opacity: 0.13; stroke: #f7d4d6; stroke-width: 1.5; stroke-linejoin: miter"/>
   </g>
   <g id="patch_4">
    <path d="M 287.668401 288.153283 
L 341.711267 245.989413 
L 332.248006 302.534606 
L 317.634664 327.696223 
L 291.89766 322.014986 
L 284.565914 318.919205 
L 268.356811 321.544744 
L 185.81012 292.43483 
L 284.150748 306.203018 
z
" clip-path="url(#p61197a5633)" style="fill: #b36a8f; opacity: 0.13; stroke: #b36a8f; stroke-width: 1.5; stroke-linejoin: miter"/>
   </g>
   <g id="patch_5">
    <path d="M 287.668401 293.817486 
L 388.299288 190.467972 
L 288.616045 310.228098 
L 288.624751 310.947342 
L 287.951423 311.172789 
L 287.614561 310.543117 
L 282.395603 313.439444 
L 133.621604 283.232586 
L 287.584783 310.295541 
z
" clip-path="url(#p61197a5633)" style="fill: #20021b; opacity: 0.13; stroke: #20021b; stroke-width: 1.5; stroke-linejoin: miter"/>
   </g>
   <g id="line2d_15">
    <path d="M 287.668401 305.404415 
L 307.677063 286.549797 
L 315.974851 305.404002 
L 288.425296 310.832186 
L 293.009205 325.068931 
L 281.834128 326.424726 
L 278.882453 315.467762 
L 75.011333 272.898014 
L 278.455651 299.415865 
L 287.668401 305.404415 
" clip-path="url(#p61197a5633)" style="fill: none; stroke: #f7d4d6; stroke-width: 1.5; stroke-linecap: round"/>
    <defs>
     <path id="m52d117fb8b" d="M 0 4.5 
C 1.193414 4.5 2.338109 4.025852 3.181981 3.181981 
C 4.025852 2.338109 4.5 1.193414 4.5 0 
C 4.5 -1.193414 4.025852 -2.338109 3.181981 -3.181981 
C 2.338109 -4.025852 1.193414 -4.5 0 -4.5 
C -1.193414 -4.5 -2.338109 -4.025852 -3.181981 -3.181981 
C -4.025852 -2.338109 -4.5 -1.193414 -4.5 0 
C -4.5 1.193414 -4.025852 2.338109 -3.181981 3.181981 
C -2.338109 4.025852 -1.193414 4.5 0 4.5 
z
" style="stroke: #f7d4d6"/>
    </defs>
    <g clip-path="url(#p61197a5633)">
     <use xlink:href="#m52d117fb8b" x="287.668401" y="305.404415" style="fill: #f7d4d6; stroke: #f7d4d6"/>
     <use xlink:href="#m52d117fb8b" x="307.677063" y="286.549797" style="fill: #f7d4d6; stroke: #f7d4d6"/>
     <use xlink:href="#m52d117fb8b" x="315.974851" y="305.404002" style="fill: #f7d4d6; stroke: #f7d4d6"/>
     <use xlink:href="#m52d117fb8b" x="288.425296" y="310.832186" style="fill: #f7d4d6; stroke: #f7d4d6"/>
     <use xlink:href="#m52d117fb8b" x="293.009205" y="325.068931" style="fill: #f7d4d6; stroke: #f7d4d6"/>
     <use xlink:href="#m52d117fb8b" x="281.834128" y="326.424726" style="fill: #f7d4d6; stroke: #f7d4d6"/>
     <use xlink:href="#m52d117fb8b" x="278.882453" y="315.467762" style="fill: #f7d4d6; stroke: #f7d4d6"/>
     <use xlink:href="#m52d117fb8b" x="75.011333" y="272.898014" style="fill: #f7d4d6; stroke: #f7d4d6"/>
     <use xlink:href="#m52d117fb8b" x="278.455651" y="299.415865" style="fill: #f7d4d6; stroke: #f7d4d6"/>
     <use xlink:href="#m52d117fb8b" x="287.668401" y="305.404415" style="fill: #f7d4d6; stroke: #f7d4d6"/>
    </g>
   </g>
   <g id="line2d_16">
    <path d="M 287.668401 305.966526 
L 302.729342 292.446262 
L 326.522236 303.544213 
L 288.369055 310.799716 
L 296.487012 334.624128 
L 279.964773 331.560737 
L 278.118456 315.908856 
L 93.131948 276.093167 
L 278.77823 299.8003 
L 287.668401 305.966526 
" clip-path="url(#p61197a5633)" style="fill: none; stroke-dasharray: 3.7,1.6; stroke-dashoffset: 0; stroke: #f7d4d6"/>
    <defs>
     <path id="mc718a74ffe" d="M 0 -4.5 
L -4.5 4.5 
L 4.5 4.5 
z
" style="stroke: #f7d4d6; stroke-linejoin: miter"/>
    </defs>
    <g clip-path="url(#p61197a5633)">
     <use xlink:href="#mc718a74ffe" x="287.668401" y="305.966526" style="fill: #f7d4d6; stroke: #f7d4d6; stroke-linejoin: miter"/>
     <use xlink:href="#mc718a74ffe" x="302.729342" y="292.446262" style="fill: #f7d4d6; stroke: #f7d4d6; stroke-linejoin: miter"/>
     <use xlink:href="#mc718a74ffe" x="326.522236" y="303.544213" style="fill: #f7d4d6; stroke: #f7d4d6; stroke-linejoin: miter"/>
     <use xlink:href="#mc718a74ffe" x="288.369055" y="310.799716" style="fill: #f7d4d6; stroke: #f7d4d6; stroke-linejoin: miter"/>
     <use xlink:href="#mc718a74ffe" x="296.487012" y="334.624128" style="fill: #f7d4d6; stroke: #f7d4d6; stroke-linejoin: miter"/>
     <use xlink:href="#mc718a74ffe" x="279.964773" y="331.560737" style="fill: #f7d4d6; stroke: #f7d4d6; stroke-linejoin: miter"/>
     <use xlink:href="#mc718a74ffe" x="278.118456" y="315.908856" style="fill: #f7d4d6; stroke: #f7d4d6; stroke-linejoin: miter"/>
     <use xlink:href="#mc718a74ffe" x="93.131948" y="276.093167" style="fill: #f7d4d6; stroke: #f7d4d6; stroke-linejoin: miter"/>
     <use xlink:href="#mc718a74ffe" x="278.77823" y="299.8003" style="fill: #f7d4d6; stroke: #f7d4d6; stroke-linejoin: miter"/>
     <use xlink:href="#mc718a74ffe" x="287.668401" y="305.966526" style="fill: #f7d4d6; stroke: #f7d4d6; stroke-linejoin: miter"/>
    </g>
   </g>
   <g id="line2d_17">
    <path d="M 287.668401 288.153283 
L 341.711267 245.989413 
L 332.248006 302.534606 
L 317.634664 327.696223 
L 291.89766 322.014986 
L 284.565914 318.919205 
L 268.356811 321.544744 
L 185.81012 292.43483 
L 284.150748 306.203018 
L 287.668401 288.153283 
" clip-path="url(#p61197a5633)" style="fill: none; stroke: #b36a8f; stroke-width: 1.5; stroke-linecap: round"/>
    <defs>
     <path id="m695fdb05db" d="M 0 4.5 
C 1.193414 4.5 2.338109 4.025852 3.181981 3.181981 
C 4.025852 2.338109 4.5 1.193414 4.5 0 
C 4.5 -1.193414 4.025852 -2.338109 3.181981 -3.181981 
C 2.338109 -4.025852 1.193414 -4.5 0 -4.5 
C -1.193414 -4.5 -2.338109 -4.025852 -3.181981 -3.181981 
C -4.025852 -2.338109 -4.5 -1.193414 -4.5 0 
C -4.5 1.193414 -4.025852 2.338109 -3.181981 3.181981 
C -2.338109 4.025852 -1.193414 4.5 0 4.5 
z
" style="stroke: #b36a8f"/>
    </defs>
    <g clip-path="url(#p61197a5633)">
     <use xlink:href="#m695fdb05db" x="287.668401" y="288.153283" style="fill: #b36a8f; stroke: #b36a8f"/>
     <use xlink:href="#m695fdb05db" x="341.711267" y="245.989413" style="fill: #b36a8f; stroke: #b36a8f"/>
     <use xlink:href="#m695fdb05db" x="332.248006" y="302.534606" style="fill: #b36a8f; stroke: #b36a8f"/>
     <use xlink:href="#m695fdb05db" x="317.634664" y="327.696223" style="fill: #b36a8f; stroke: #b36a8f"/>
     <use xlink:href="#m695fdb05db" x="291.89766" y="322.014986" style="fill: #b36a8f; stroke: #b36a8f"/>
     <use xlink:href="#m695fdb05db" x="284.565914" y="318.919205" style="fill: #b36a8f; stroke: #b36a8f"/>
     <use xlink:href="#m695fdb05db" x="268.356811" y="321.544744" style="fill: #b36a8f; stroke: #b36a8f"/>
     <use xlink:href="#m695fdb05db" x="185.81012" y="292.43483" style="fill: #b36a8f; stroke: #b36a8f"/>
     <use xlink:href="#m695fdb05db" x="284.150748" y="306.203018" style="fill: #b36a8f; stroke: #b36a8f"/>
     <use xlink:href="#m695fdb05db" x="287.668401" y="288.153283" style="fill: #b36a8f; stroke: #b36a8f"/>
    </g>
   </g>
   <g id="line2d_18">
    <path d="M 287.668401 295.250467 
L 339.781888 248.288758 
L 344.579898 300.36016 
L 317.611052 327.68259 
L 292.364522 323.297679 
L 284.778509 318.335106 
L 269.602073 320.825792 
L 187.371263 292.710101 
L 284.225567 306.292183 
L 287.668401 295.250467 
" clip-path="url(#p61197a5633)" style="fill: none; stroke-dasharray: 3.7,1.6; stroke-dashoffset: 0; stroke: #b36a8f"/>
    <defs>
     <path id="m9dd3329f06" d="M 0 -4.5 
L -4.5 4.5 
L 4.5 4.5 
z
" style="stroke: #b36a8f; stroke-linejoin: miter"/>
    </defs>
    <g clip-path="url(#p61197a5633)">
     <use xlink:href="#m9dd3329f06" x="287.668401" y="295.250467" style="fill: #b36a8f; stroke: #b36a8f; stroke-linejoin: miter"/>
     <use xlink:href="#m9dd3329f06" x="339.781888" y="248.288758" style="fill: #b36a8f; stroke: #b36a8f; stroke-linejoin: miter"/>
     <use xlink:href="#m9dd3329f06" x="344.579898" y="300.36016" style="fill: #b36a8f; stroke: #b36a8f; stroke-linejoin: miter"/>
     <use xlink:href="#m9dd3329f06" x="317.611052" y="327.68259" style="fill: #b36a8f; stroke: #b36a8f; stroke-linejoin: miter"/>
     <use xlink:href="#m9dd3329f06" x="292.364522" y="323.297679" style="fill: #b36a8f; stroke: #b36a8f; stroke-linejoin: miter"/>
     <use xlink:href="#m9dd3329f06" x="284.778509" y="318.335106" style="fill: #b36a8f; stroke: #b36a8f; stroke-linejoin: miter"/>
     <use xlink:href="#m9dd3329f06" x="269.602073" y="320.825792" style="fill: #b36a8f; stroke: #b36a8f; stroke-linejoin: miter"/>
     <use xlink:href="#m9dd3329f06" x="187.371263" y="292.710101" style="fill: #b36a8f; stroke: #b36a8f; stroke-linejoin: miter"/>
     <use xlink:href="#m9dd3329f06" x="284.225567" y="306.292183" style="fill: #b36a8f; stroke: #b36a8f; stroke-linejoin: miter"/>
     <use xlink:href="#m9dd3329f06" x="287.668401" y="295.250467" style="fill: #b36a8f; stroke: #b36a8f; stroke-linejoin: miter"/>
    </g>
   </g>
   <g id="line2d_19">
    <path d="M 287.668401 293.817486 
L 388.299288 190.467972 
L 288.616045 310.228098 
L 288.624751 310.947342 
L 287.951423 311.172789 
L 287.614561 310.543117 
L 282.395603 313.439444 
L 133.621604 283.232586 
L 287.584783 310.295541 
L 287.668401 293.817486 
" clip-path="url(#p61197a5633)" style="fill: none; stroke: #20021b; stroke-width: 1.5; stroke-linecap: round"/>
    <defs>
     <path id="m0f8df81e33" d="M 0 4.5 
C 1.193414 4.5 2.338109 4.025852 3.181981 3.181981 
C 4.025852 2.338109 4.5 1.193414 4.5 0 
C 4.5 -1.193414 4.025852 -2.338109 3.181981 -3.181981 
C 2.338109 -4.025852 1.193414 -4.5 0 -4.5 
C -1.193414 -4.5 -2.338109 -4.025852 -3.181981 -3.181981 
C -4.025852 -2.338109 -4.5 -1.193414 -4.5 0 
C -4.5 1.193414 -4.025852 2.338109 -3.181981 3.181981 
C -2.338109 4.025852 -1.193414 4.5 0 4.5 
z
" style="stroke: #20021b"/>
    </defs>
    <g clip-path="url(#p61197a5633)">
     <use xlink:href="#m0f8df81e33" x="287.668401" y="293.817486" style="fill: #20021b; stroke: #20021b"/>
     <use xlink:href="#m0f8df81e33" x="388.299288" y="190.467972" style="fill: #20021b; stroke: #20021b"/>
     <use xlink:href="#m0f8df81e33" x="288.616045" y="310.228098" style="fill: #20021b; stroke: #20021b"/>
     <use xlink:href="#m0f8df81e33" x="288.624751" y="310.947342" style="fill: #20021b; stroke: #20021b"/>
     <use xlink:href="#m0f8df81e33" x="287.951423" y="311.172789" style="fill: #20021b; stroke: #20021b"/>
     <use xlink:href="#m0f8df81e33" x="287.614561" y="310.543117" style="fill: #20021b; stroke: #20021b"/>
     <use xlink:href="#m0f8df81e33" x="282.395603" y="313.439444" style="fill: #20021b; stroke: #20021b"/>
     <use xlink:href="#m0f8df81e33" x="133.621604" y="283.232586" style="fill: #20021b; stroke: #20021b"/>
     <use xlink:href="#m0f8df81e33" x="287.584783" y="310.295541" style="fill: #20021b; stroke: #20021b"/>
     <use xlink:href="#m0f8df81e33" x="287.668401" y="293.817486" style="fill: #20021b; stroke: #20021b"/>
    </g>
   </g>
   <g id="line2d_20">
    <path d="M 287.668401 298.680504 
L 392.101145 185.937095 
L 288.377243 310.270205 
L 288.508494 310.880221 
L 288.029189 311.386451 
L 287.574696 310.652644 
L 281.102962 314.185751 
L 136.211607 283.689274 
L 287.508599 310.204749 
L 287.668401 298.680504 
" clip-path="url(#p61197a5633)" style="fill: none; stroke-dasharray: 3.7,1.6; stroke-dashoffset: 0; stroke: #20021b"/>
    <defs>
     <path id="m6fc8ce7016" d="M 0 -4.5 
L -4.5 4.5 
L 4.5 4.5 
z
" style="stroke: #20021b; stroke-linejoin: miter"/>
    </defs>
    <g clip-path="url(#p61197a5633)">
     <use xlink:href="#m6fc8ce7016" x="287.668401" y="298.680504" style="fill: #20021b; stroke: #20021b; stroke-linejoin: miter"/>
     <use xlink:href="#m6fc8ce7016" x="392.101145" y="185.937095" style="fill: #20021b; stroke: #20021b; stroke-linejoin: miter"/>
     <use xlink:href="#m6fc8ce7016" x="288.377243" y="310.270205" style="fill: #20021b; stroke: #20021b; stroke-linejoin: miter"/>
     <use xlink:href="#m6fc8ce7016" x="288.508494" y="310.880221" style="fill: #20021b; stroke: #20021b; stroke-linejoin: miter"/>
     <use xlink:href="#m6fc8ce7016" x="288.029189" y="311.386451" style="fill: #20021b; stroke: #20021b; stroke-linejoin: miter"/>
     <use xlink:href="#m6fc8ce7016" x="287.574696" y="310.652644" style="fill: #20021b; stroke: #20021b; stroke-linejoin: miter"/>
     <use xlink:href="#m6fc8ce7016" x="281.102962" y="314.185751" style="fill: #20021b; stroke: #20021b; stroke-linejoin: miter"/>
     <use xlink:href="#m6fc8ce7016" x="136.211607" y="283.689274" style="fill: #20021b; stroke: #20021b; stroke-linejoin: miter"/>
     <use xlink:href="#m6fc8ce7016" x="287.508599" y="310.204749" style="fill: #20021b; stroke: #20021b; stroke-linejoin: miter"/>
     <use xlink:href="#m6fc8ce7016" x="287.668401" y="298.680504" style="fill: #20021b; stroke: #20021b; stroke-linejoin: miter"/>
    </g>
   </g>
   <g id="patch_6">
    <path d="M 287.668401 72.863782 
C 256.476062 72.863782 225.587029 79.007993 196.769065 90.944784 
C 167.951102 102.881576 141.764644 120.378807 119.70833 142.435122 
C 97.652015 164.491436 80.154784 190.677894 68.217992 219.495857 
C 56.281201 248.313821 50.13699 279.202854 50.13699 310.395193 
C 50.13699 341.587532 56.281201 372.476565 68.217992 401.294528 
C 80.154784 430.112492 97.652015 456.298949 119.70833 478.355264 
C 141.764644 500.411578 167.951102 517.90881 196.769065 529.845601 
C 225.587029 541.782393 256.476062 547.926603 287.668401 547.926603 
C 318.86074 547.926603 349.749773 541.782393 378.567736 529.845601 
C 407.3857 517.90881 433.572158 500.411578 455.628472 478.355264 
C 477.684787 456.298949 495.182018 430.112492 507.118809 401.294528 
C 519.055601 372.476565 525.199812 341.587532 525.199812 310.395193 
C 525.199812 279.202854 519.055601 248.313821 507.118809 219.495857 
C 495.182018 190.677894 477.684787 164.491436 455.628472 142.435122 
C 433.572158 120.378807 407.3857 102.881576 378.567736 90.944784 
C 349.749773 79.007993 318.86074 72.863782 287.668401 72.863782 
" style="fill: none; stroke: #262626; stroke-width: 1.1; stroke-linejoin: miter; stroke-linecap: square"/>
   </g>
   <g id="text_15">
    <!-- Action Profiles of Fair-PPO Variants -->
    <g style="fill: #262626" transform="translate(143.145901 19.3575) scale(0.16 -0.16)">
     <defs>
      <path id="DejaVuSerif-41" d="M 1281 1691 
L 2994 1691 
L 2138 3909 
L 1281 1691 
z
M -38 0 
L -38 331 
L 372 331 
L 2034 4666 
L 2559 4666 
L 4225 331 
L 4684 331 
L 4684 0 
L 2988 0 
L 2988 331 
L 3506 331 
L 3116 1356 
L 1153 1356 
L 763 331 
L 1275 331 
L 1275 0 
L -38 0 
z
" transform="scale(0.015625)"/>
      <path id="DejaVuSerif-20" transform="scale(0.015625)"/>
      <path id="DejaVuSerif-50" d="M 1581 2375 
L 2406 2375 
Q 2872 2375 3115 2626 
Q 3359 2878 3359 3353 
Q 3359 3831 3115 4081 
Q 2872 4331 2406 4331 
L 1581 4331 
L 1581 2375 
z
M 353 0 
L 353 331 
L 947 331 
L 947 4331 
L 353 4331 
L 353 4666 
L 2559 4666 
Q 3259 4666 3668 4311 
Q 4078 3956 4078 3353 
Q 4078 2753 3668 2397 
Q 3259 2041 2559 2041 
L 1581 2041 
L 1581 331 
L 2303 331 
L 2303 0 
L 353 0 
z
" transform="scale(0.015625)"/>
      <path id="DejaVuSerif-46" d="M 353 0 
L 353 331 
L 947 331 
L 947 4331 
L 353 4331 
L 353 4666 
L 4172 4666 
L 4172 3628 
L 3788 3628 
L 3788 4281 
L 1581 4281 
L 1581 2719 
L 3175 2719 
L 3175 3303 
L 3559 3303 
L 3559 1753 
L 3175 1753 
L 3175 2338 
L 1581 2338 
L 1581 331 
L 2328 331 
L 2328 0 
L 353 0 
z
" transform="scale(0.015625)"/>
      <path id="DejaVuSerif-2d" d="M 281 1959 
L 1881 1959 
L 1881 1472 
L 281 1472 
L 281 1959 
z
" transform="scale(0.015625)"/>
      <path id="DejaVuSerif-4f" d="M 2625 244 
Q 3391 244 3781 770 
Q 4172 1297 4172 2328 
Q 4172 3363 3781 3889 
Q 3391 4416 2625 4416 
Q 1856 4416 1465 3889 
Q 1075 3363 1075 2328 
Q 1075 1297 1465 770 
Q 1856 244 2625 244 
z
M 2625 -91 
Q 2150 -91 1751 65 
Q 1353 222 1050 525 
Q 700 875 529 1319 
Q 359 1763 359 2328 
Q 359 2894 529 3339 
Q 700 3784 1050 4134 
Q 1356 4441 1750 4595 
Q 2144 4750 2625 4750 
Q 3641 4750 4266 4084 
Q 4891 3419 4891 2328 
Q 4891 1769 4719 1320 
Q 4547 872 4197 525 
Q 3891 219 3497 64 
Q 3103 -91 2625 -91 
z
" transform="scale(0.015625)"/>
      <path id="DejaVuSerif-56" d="M 1119 4331 
L 2497 750 
L 3872 4331 
L 3347 4331 
L 3347 4666 
L 4716 4666 
L 4716 4331 
L 4263 4331 
L 2597 0 
L 2059 0 
L 403 4331 
L -63 4331 
L -63 4666 
L 1638 4666 
L 1638 4331 
L 1119 4331 
z
" transform="scale(0.015625)"/>
     </defs>
     <use xlink:href="#DejaVuSerif-41"/>
     <use xlink:href="#DejaVuSerif-63" x="72.216797"/>
     <use xlink:href="#DejaVuSerif-74" x="128.222656"/>
     <use xlink:href="#DejaVuSerif-69" x="168.408203"/>
     <use xlink:href="#DejaVuSerif-6f" x="200.390625"/>
     <use xlink:href="#DejaVuSerif-6e" x="260.595703"/>
     <use xlink:href="#DejaVuSerif-20" x="325"/>
     <use xlink:href="#DejaVuSerif-50" x="356.787109"/>
     <use xlink:href="#DejaVuSerif-72" x="424.072266"/>
     <use xlink:href="#DejaVuSerif-6f" x="471.875"/>
     <use xlink:href="#DejaVuSerif-66" x="532.080078"/>
     <use xlink:href="#DejaVuSerif-69" x="569.091797"/>
     <use xlink:href="#DejaVuSerif-6c" x="601.074219"/>
     <use xlink:href="#DejaVuSerif-65" x="633.056641"/>
     <use xlink:href="#DejaVuSerif-73" x="692.236328"/>
     <use xlink:href="#DejaVuSerif-20" x="743.554688"/>
     <use xlink:href="#DejaVuSerif-6f" x="775.341797"/>
     <use xlink:href="#DejaVuSerif-66" x="835.546875"/>
     <use xlink:href="#DejaVuSerif-20" x="872.558594"/>
     <use xlink:href="#DejaVuSerif-46" x="904.345703"/>
     <use xlink:href="#DejaVuSerif-61" x="966.980469"/>
     <use xlink:href="#DejaVuSerif-69" x="1026.599609"/>
     <use xlink:href="#DejaVuSerif-72" x="1058.582031"/>
     <use xlink:href="#DejaVuSerif-2d" x="1106.384766"/>
     <use xlink:href="#DejaVuSerif-50" x="1140.173828"/>
     <use xlink:href="#DejaVuSerif-50" x="1207.458984"/>
     <use xlink:href="#DejaVuSerif-4f" x="1274.744141"/>
     <use xlink:href="#DejaVuSerif-20" x="1356.726562"/>
     <use xlink:href="#DejaVuSerif-56" x="1388.513672"/>
     <use xlink:href="#DejaVuSerif-61" x="1451.605469"/>
     <use xlink:href="#DejaVuSerif-72" x="1511.224609"/>
     <use xlink:href="#DejaVuSerif-69" x="1559.027344"/>
     <use xlink:href="#DejaVuSerif-61" x="1591.009766"/>
     <use xlink:href="#DejaVuSerif-6e" x="1650.628906"/>
     <use xlink:href="#DejaVuSerif-74" x="1715.033203"/>
     <use xlink:href="#DejaVuSerif-73" x="1755.21875"/>
    </g>
   </g>
   <g id="legend_1">
    <g id="text_16">
     <!-- Algorithm -->
     <g style="fill: #262626" transform="translate(57.251506 33.782803) scale(0.18 -0.18)">
      <use xlink:href="#DejaVuSerif-41"/>
      <use xlink:href="#DejaVuSerif-6c" x="72.216797"/>
      <use xlink:href="#DejaVuSerif-67" x="104.199219"/>
      <use xlink:href="#DejaVuSerif-6f" x="168.212891"/>
      <use xlink:href="#DejaVuSerif-72" x="228.417969"/>
      <use xlink:href="#DejaVuSerif-69" x="276.220703"/>
      <use xlink:href="#DejaVuSerif-74" x="308.203125"/>
      <use xlink:href="#DejaVuSerif-68" x="348.388672"/>
      <use xlink:href="#DejaVuSerif-6d" x="412.792969"/>
     </g>
    </g>
    <g id="line2d_21">
     <path d="M 35.383849 46.880615 
L 45.383849 46.880615 
L 55.383849 46.880615 
" style="fill: none; stroke: #f7d4d6; stroke-width: 4; stroke-linecap: round"/>
    </g>
    <g id="text_17">
     <!-- Fair-PPO (0.25, 0.0) -->
     <g style="fill: #262626" transform="translate(63.383849 50.380615) scale(0.1 -0.1)">
      <defs>
       <path id="DejaVuSerif-28" d="M 2041 -997 
Q 1281 -656 893 83 
Q 506 822 506 1931 
Q 506 3044 893 3783 
Q 1281 4522 2041 4863 
L 2041 4556 
Q 1559 4225 1350 3623 
Q 1141 3022 1141 1931 
Q 1141 844 1350 242 
Q 1559 -359 2041 -691 
L 2041 -997 
z
" transform="scale(0.015625)"/>
       <path id="DejaVuSerif-2e" d="M 603 325 
Q 603 500 722 622 
Q 841 744 1019 744 
Q 1191 744 1312 622 
Q 1434 500 1434 325 
Q 1434 153 1312 31 
Q 1191 -91 1019 -91 
Q 841 -91 722 29 
Q 603 150 603 325 
z
" transform="scale(0.015625)"/>
       <path id="DejaVuSerif-35" d="M 3219 4666 
L 3219 4153 
L 1081 4153 
L 1081 2816 
Q 1244 2928 1461 2984 
Q 1678 3041 1947 3041 
Q 2703 3041 3140 2622 
Q 3578 2203 3578 1478 
Q 3578 738 3136 323 
Q 2694 -91 1894 -91 
Q 1572 -91 1234 -12 
Q 897 66 544 225 
L 544 1131 
L 897 1131 
Q 925 688 1179 453 
Q 1434 219 1894 219 
Q 2388 219 2653 544 
Q 2919 869 2919 1478 
Q 2919 2084 2655 2407 
Q 2391 2731 1894 2731 
Q 1613 2731 1398 2631 
Q 1184 2531 1019 2322 
L 750 2322 
L 750 4666 
L 3219 4666 
z
" transform="scale(0.015625)"/>
       <path id="DejaVuSerif-2c" d="M 231 -622 
Q 525 -406 662 -114 
Q 800 178 800 594 
L 800 709 
L 1416 709 
Q 1391 175 1164 -208 
Q 938 -591 481 -872 
L 231 -622 
z
" transform="scale(0.015625)"/>
       <path id="DejaVuSerif-29" d="M 453 -997 
L 453 -691 
Q 934 -359 1145 242 
Q 1356 844 1356 1931 
Q 1356 3022 1145 3623 
Q 934 4225 453 4556 
L 453 4863 
Q 1216 4522 1603 3783 
Q 1991 3044 1991 1931 
Q 1991 822 1603 83 
Q 1216 -656 453 -997 
z
" transform="scale(0.015625)"/>
      </defs>
      <use xlink:href="#DejaVuSerif-46"/>
      <use xlink:href="#DejaVuSerif-61" x="62.634766"/>
      <use xlink:href="#DejaVuSerif-69" x="122.253906"/>
      <use xlink:href="#DejaVuSerif-72" x="154.236328"/>
      <use xlink:href="#DejaVuSerif-2d" x="202.039062"/>
      <use xlink:href="#DejaVuSerif-50" x="235.828125"/>
      <use xlink:href="#DejaVuSerif-50" x="303.113281"/>
      <use xlink:href="#DejaVuSerif-4f" x="370.398438"/>
      <use xlink:href="#DejaVuSerif-20" x="452.380859"/>
      <use xlink:href="#DejaVuSerif-28" x="484.167969"/>
      <use xlink:href="#DejaVuSerif-30" x="523.181641"/>
      <use xlink:href="#DejaVuSerif-2e" x="586.804688"/>
      <use xlink:href="#DejaVuSerif-32" x="618.591797"/>
      <use xlink:href="#DejaVuSerif-35" x="682.214844"/>
      <use xlink:href="#DejaVuSerif-2c" x="745.837891"/>
      <use xlink:href="#DejaVuSerif-20" x="777.625"/>
      <use xlink:href="#DejaVuSerif-30" x="809.412109"/>
      <use xlink:href="#DejaVuSerif-2e" x="873.035156"/>
      <use xlink:href="#DejaVuSerif-30" x="904.822266"/>
      <use xlink:href="#DejaVuSerif-29" x="968.445312"/>
     </g>
    </g>
    <g id="line2d_22">
     <path d="M 35.383849 61.55874 
L 45.383849 61.55874 
L 55.383849 61.55874 
" style="fill: none; stroke: #b36a8f; stroke-width: 4; stroke-linecap: round"/>
    </g>
    <g id="text_18">
     <!-- Fair-PPO (0.25, 0.25) -->
     <g style="fill: #262626" transform="translate(63.383849 65.05874) scale(0.1 -0.1)">
      <use xlink:href="#DejaVuSerif-46"/>
      <use xlink:href="#DejaVuSerif-61" x="62.634766"/>
      <use xlink:href="#DejaVuSerif-69" x="122.253906"/>
      <use xlink:href="#DejaVuSerif-72" x="154.236328"/>
      <use xlink:href="#DejaVuSerif-2d" x="202.039062"/>
      <use xlink:href="#DejaVuSerif-50" x="235.828125"/>
      <use xlink:href="#DejaVuSerif-50" x="303.113281"/>
      <use xlink:href="#DejaVuSerif-4f" x="370.398438"/>
      <use xlink:href="#DejaVuSerif-20" x="452.380859"/>
      <use xlink:href="#DejaVuSerif-28" x="484.167969"/>
      <use xlink:href="#DejaVuSerif-30" x="523.181641"/>
      <use xlink:href="#DejaVuSerif-2e" x="586.804688"/>
      <use xlink:href="#DejaVuSerif-32" x="618.591797"/>
      <use xlink:href="#DejaVuSerif-35" x="682.214844"/>
      <use xlink:href="#DejaVuSerif-2c" x="745.837891"/>
      <use xlink:href="#DejaVuSerif-20" x="777.625"/>
      <use xlink:href="#DejaVuSerif-30" x="809.412109"/>
      <use xlink:href="#DejaVuSerif-2e" x="873.035156"/>
      <use xlink:href="#DejaVuSerif-32" x="904.822266"/>
      <use xlink:href="#DejaVuSerif-35" x="968.445312"/>
      <use xlink:href="#DejaVuSerif-29" x="1032.068359"/>
     </g>
    </g>
    <g id="line2d_23">
     <path d="M 35.383849 76.236865 
L 45.383849 76.236865 
L 55.383849 76.236865 
" style="fill: none; stroke: #20021b; stroke-width: 4; stroke-linecap: round"/>
    </g>
    <g id="text_19">
     <!-- Fair-PPO (0.75, 0.25) -->
     <g style="fill: #262626" transform="translate(63.383849 79.736865) scale(0.1 -0.1)">
      <defs>
       <path id="DejaVuSerif-37" d="M 3609 4347 
L 1784 0 
L 1319 0 
L 3059 4153 
L 903 4153 
L 903 3578 
L 538 3578 
L 538 4666 
L 3609 4666 
L 3609 4347 
z
" transform="scale(0.015625)"/>
      </defs>
      <use xlink:href="#DejaVuSerif-46"/>
      <use xlink:href="#DejaVuSerif-61" x="62.634766"/>
      <use xlink:href="#DejaVuSerif-69" x="122.253906"/>
      <use xlink:href="#DejaVuSerif-72" x="154.236328"/>
      <use xlink:href="#DejaVuSerif-2d" x="202.039062"/>
      <use xlink:href="#DejaVuSerif-50" x="235.828125"/>
      <use xlink:href="#DejaVuSerif-50" x="303.113281"/>
      <use xlink:href="#DejaVuSerif-4f" x="370.398438"/>
      <use xlink:href="#DejaVuSerif-20" x="452.380859"/>
      <use xlink:href="#DejaVuSerif-28" x="484.167969"/>
      <use xlink:href="#DejaVuSerif-30" x="523.181641"/>
      <use xlink:href="#DejaVuSerif-2e" x="586.804688"/>
      <use xlink:href="#DejaVuSerif-37" x="618.591797"/>
      <use xlink:href="#DejaVuSerif-35" x="682.214844"/>
      <use xlink:href="#DejaVuSerif-2c" x="745.837891"/>
      <use xlink:href="#DejaVuSerif-20" x="777.625"/>
      <use xlink:href="#DejaVuSerif-30" x="809.412109"/>
      <use xlink:href="#DejaVuSerif-2e" x="873.035156"/>
      <use xlink:href="#DejaVuSerif-32" x="904.822266"/>
      <use xlink:href="#DejaVuSerif-35" x="968.445312"/>
      <use xlink:href="#DejaVuSerif-29" x="1032.068359"/>
     </g>
    </g>
   </g>
   <g id="legend_2">
    <g id="text_20">
     <!-- Group -->
     <g style="fill: #262626" transform="translate(525.799244 33.782803) scale(0.18 -0.18)">
      <defs>
       <path id="DejaVuSerif-47" d="M 4097 3272 
Q 3988 3856 3641 4136 
Q 3294 4416 2675 4416 
Q 1869 4416 1472 3897 
Q 1075 3378 1075 2328 
Q 1075 1300 1484 772 
Q 1894 244 2688 244 
Q 3041 244 3362 331 
Q 3684 419 3975 594 
L 3975 1797 
L 3097 1797 
L 3097 2131 
L 4609 2131 
L 4609 391 
Q 4194 150 3714 29 
Q 3234 -91 2688 -91 
Q 1631 -91 995 570 
Q 359 1231 359 2328 
Q 359 3434 996 4092 
Q 1634 4750 2713 4750 
Q 3113 4750 3539 4658 
Q 3966 4566 4447 4378 
L 4447 3272 
L 4097 3272 
z
" transform="scale(0.015625)"/>
      </defs>
      <use xlink:href="#DejaVuSerif-47"/>
      <use xlink:href="#DejaVuSerif-72" x="79.882812"/>
      <use xlink:href="#DejaVuSerif-6f" x="127.685547"/>
      <use xlink:href="#DejaVuSerif-75" x="187.890625"/>
      <use xlink:href="#DejaVuSerif-70" x="252.294922"/>
     </g>
    </g>
    <g id="line2d_24">
     <path d="M 506.823619 46.624678 
L 516.823619 46.624678 
L 526.823619 46.624678 
" style="fill: none; stroke: #1a1a1a; stroke-width: 1.5; stroke-linecap: round"/>
     <defs>
      <path id="m81137a7ddd" d="M 0 4.5 
C 1.193414 4.5 2.338109 4.025852 3.181981 3.181981 
C 4.025852 2.338109 4.5 1.193414 4.5 0 
C 4.5 -1.193414 4.025852 -2.338109 3.181981 -3.181981 
C 2.338109 -4.025852 1.193414 -4.5 0 -4.5 
C -1.193414 -4.5 -2.338109 -4.025852 -3.181981 -3.181981 
C -4.025852 -2.338109 -4.5 -1.193414 -4.5 0 
C -4.5 1.193414 -4.025852 2.338109 -3.181981 3.181981 
C -2.338109 4.025852 -1.193414 4.5 0 4.5 
z
" style="stroke: #1a1a1a"/>
     </defs>
     <g>
      <use xlink:href="#m81137a7ddd" x="516.823619" y="46.624678" style="fill: #1a1a1a; stroke: #1a1a1a"/>
     </g>
    </g>
    <g id="text_21">
     <!-- non-sensitive -->
     <g style="fill: #262626" transform="translate(534.823619 50.124678) scale(0.1 -0.1)">
      <use xlink:href="#DejaVuSerif-6e"/>
      <use xlink:href="#DejaVuSerif-6f" x="64.404297"/>
      <use xlink:href="#DejaVuSerif-6e" x="124.609375"/>
      <use xlink:href="#DejaVuSerif-2d" x="189.013672"/>
      <use xlink:href="#DejaVuSerif-73" x="222.802734"/>
      <use xlink:href="#DejaVuSerif-65" x="274.121094"/>
      <use xlink:href="#DejaVuSerif-6e" x="333.300781"/>
      <use xlink:href="#DejaVuSerif-73" x="397.705078"/>
      <use xlink:href="#DejaVuSerif-69" x="449.023438"/>
      <use xlink:href="#DejaVuSerif-74" x="481.005859"/>
      <use xlink:href="#DejaVuSerif-69" x="521.191406"/>
      <use xlink:href="#DejaVuSerif-76" x="553.173828"/>
      <use xlink:href="#DejaVuSerif-65" x="609.667969"/>
     </g>
    </g>
    <g id="line2d_25">
     <path d="M 506.823619 61.302803 
L 516.823619 61.302803 
L 526.823619 61.302803 
" style="fill: none; stroke-dasharray: 3.7,1.6; stroke-dashoffset: 0; stroke: #1a1a1a"/>
     <defs>
      <path id="m490e8a4b7d" d="M 0 -4.5 
L -4.5 4.5 
L 4.5 4.5 
z
" style="stroke: #1a1a1a; stroke-linejoin: miter"/>
     </defs>
     <g>
      <use xlink:href="#m490e8a4b7d" x="516.823619" y="61.302803" style="fill: #1a1a1a; stroke: #1a1a1a; stroke-linejoin: miter"/>
     </g>
    </g>
    <g id="text_22">
     <!-- sensitive -->
     <g style="fill: #262626" transform="translate(534.823619 64.802803) scale(0.1 -0.1)">
      <use xlink:href="#DejaVuSerif-73"/>
      <use xlink:href="#DejaVuSerif-65" x="51.318359"/>
      <use xlink:href="#DejaVuSerif-6e" x="110.498047"/>
      <use xlink:href="#DejaVuSerif-73" x="174.902344"/>
      <use xlink:href="#DejaVuSerif-69" x="226.220703"/>
      <use xlink:href="#DejaVuSerif-74" x="258.203125"/>
      <use xlink:href="#DejaVuSerif-69" x="298.388672"/>
      <use xlink:href="#DejaVuSerif-76" x="330.371094"/>
      <use xlink:href="#DejaVuSerif-65" x="386.865234"/>
     </g>
    </g>
   </g>
  </g>
 </g>
 <defs>
  <clipPath id="p61197a5633">
   <path d="M 525.199812 310.395193 
C 525.199812 279.202854 519.055601 248.313821 507.118809 219.495857 
C 495.182018 190.677894 477.684787 164.491436 455.628472 142.435122 
C 433.572158 120.378807 407.3857 102.881576 378.567736 90.944784 
C 349.749773 79.007993 318.86074 72.863782 287.668401 72.863782 
C 256.476062 72.863782 225.587029 79.007993 196.769065 90.944784 
C 167.951102 102.881576 141.764644 120.378807 119.70833 142.435122 
C 97.652015 164.491436 80.154784 190.677894 68.217992 219.495857 
C 56.281201 248.313821 50.13699 279.202854 50.13699 310.395193 
C 50.13699 341.587532 56.281201 372.476565 68.217992 401.294528 
C 80.154784 430.112492 97.652015 456.298949 119.70833 478.355264 
C 141.764644 500.411578 167.951102 517.90881 196.769065 529.845601 
C 225.587029 541.782393 256.476062 547.926603 287.668401 547.926603 
C 318.86074 547.926603 349.749773 541.782393 378.567736 529.845601 
C 407.3857 517.90881 433.572158 500.411578 455.628472 478.355264 
C 477.684787 456.298949 495.182018 430.112492 507.118809 401.294528 
C 519.055601 372.476565 525.199812 341.587532 525.199812 310.395193 
M 287.668401 310.395193 
C 287.668401 310.395193 287.668401 310.395193 287.668401 310.395193 
C 287.668401 310.395193 287.668401 310.395193 287.668401 310.395193 
C 287.668401 310.395193 287.668401 310.395193 287.668401 310.395193 
C 287.668401 310.395193 287.668401 310.395193 287.668401 310.395193 
C 287.668401 310.395193 287.668401 310.395193 287.668401 310.395193 
C 287.668401 310.395193 287.668401 310.395193 287.668401 310.395193 
C 287.668401 310.395193 287.668401 310.395193 287.668401 310.395193 
C 287.668401 310.395193 287.668401 310.395193 287.668401 310.395193 
C 287.668401 310.395193 287.668401 310.395193 287.668401 310.395193 
C 287.668401 310.395193 287.668401 310.395193 287.668401 310.395193 
C 287.668401 310.395193 287.668401 310.395193 287.668401 310.395193 
C 287.668401 310.395193 287.668401 310.395193 287.668401 310.395193 
C 287.668401 310.395193 287.668401 310.395193 287.668401 310.395193 
C 287.668401 310.395193 287.668401 310.395193 287.668401 310.395193 
C 287.668401 310.395193 287.668401 310.395193 287.668401 310.395193 
C 287.668401 310.395193 287.668401 310.395193 287.668401 310.395193 
z
"/>
  </clipPath>
 </defs>
</svg>
