<?xml version="1.0" encoding="utf-8" standalone="no"?>
<!DOCTYPE svg PUBLIC "-//W3C//DTD SVG 1.1//EN"
  "http://www.w3.org/Graphics/SVG/1.1/DTD/svg11.dtd">
<svg xmlns:xlink="http://www.w3.org/1999/xlink" width="396pt" height="216pt" viewBox="0 0 396 216" xmlns="http://www.w3.org/2000/svg" version="1.1">
 <metadata>
  <rdf:RDF xmlns:dc="http://purl.org/dc/elements/1.1/" xmlns:cc="http://creativecommons.org/ns#" xmlns:rdf="http://www.w3.org/1999/02/22-rdf-syntax-ns#">
   <cc:Work>
    <dc:type rdf:resource="http://purl.org/dc/dcmitype/StillImage"/>
    <dc:date>2025-08-03T11:35:51.222275</dc:date>
    <dc:format>image/svg+xml</dc:format>
    <dc:creator>
     <cc:Agent>
      <dc:title>Matplotlib v3.9.1, https://matplotlib.org/</dc:title>
     </cc:Agent>
    </dc:creator>
   </cc:Work>
  </rdf:RDF>
 </metadata>
 <defs>
  <style type="text/css">*{stroke-linejoin: round; stroke-linecap: butt}</style>
 </defs>
 <g id="figure_1">
  <g id="patch_1">
   <path d="M 0 216 
L 396 216 
L 396 0 
L 0 0 
z
" style="fill: #ffffff"/>
  </g>
  <g id="axes_1">
   <g id="patch_2">
    <path d="M 47.63 174.04 
L 385.2 174.04 
L 385.2 29.04 
L 47.63 29.04 
z
" style="fill: #ffffff"/>
   </g>
   <g id="PathCollection_1">
    <path d="M 356.417105 46.492754 
C 357.444232 46.492754 358.429429 46.084672 359.155718 45.358384 
C 359.882007 44.632095 360.290088 43.646898 360.290088 42.619771 
C 360.290088 41.592644 359.882007 40.607447 359.155718 39.881158 
C 358.429429 39.154869 357.444232 38.746787 356.417105 38.746787 
C 355.389978 38.746787 354.404781 39.154869 353.678492 39.881158 
C 352.952204 40.607447 352.544122 41.592644 352.544122 42.619771 
C 352.544122 43.646898 352.952204 44.632095 353.678492 45.358384 
C 354.404781 46.084672 355.389978 46.492754 356.417105 46.492754 
z
" clip-path="url(#p140a61b4ba)" style="fill: #7570b3; fill-opacity: 0.85; stroke: #ffffff; stroke-opacity: 0.85; stroke-width: 0.619677"/>
    <path d="M 360.013611 47.572749 
C 361.040738 47.572749 362.025935 47.164667 362.752224 46.438379 
C 363.478513 45.71209 363.886595 44.726893 363.886595 43.699766 
C 363.886595 42.672639 363.478513 41.687442 362.752224 40.961153 
C 362.025935 40.234864 361.040738 39.826783 360.013611 39.826783 
C 358.986484 39.826783 358.001287 40.234864 357.274998 40.961153 
C 356.54871 41.687442 356.140628 42.672639 356.140628 43.699766 
C 356.140628 44.726893 356.54871 45.71209 357.274998 46.438379 
C 358.001287 47.164667 358.986484 47.572749 360.013611 47.572749 
z
" clip-path="url(#p140a61b4ba)" style="fill: #7570b3; fill-opacity: 0.85; stroke: #ffffff; stroke-opacity: 0.85; stroke-width: 0.619677"/>
    <path d="M 289.033945 70.625135 
C 290.061073 70.625135 291.04627 70.217053 291.772558 69.490764 
C 292.498847 68.764475 292.906929 67.779278 292.906929 66.752151 
C 292.906929 65.725024 292.498847 64.739827 291.772558 64.013538 
C 291.04627 63.28725 290.061073 62.879168 289.033945 62.879168 
C 288.006818 62.879168 287.021621 63.28725 286.295333 64.013538 
C 285.569044 64.739827 285.160962 65.725024 285.160962 66.752151 
C 285.160962 67.779278 285.569044 68.764475 286.295333 69.490764 
C 287.021621 70.217053 288.006818 70.625135 289.033945 70.625135 
z
" clip-path="url(#p140a61b4ba)" style="fill: #7570b3; fill-opacity: 0.85; stroke: #ffffff; stroke-opacity: 0.85; stroke-width: 0.619677"/>
    <path d="M 369.855909 39.503892 
C 370.883036 39.503892 371.868233 39.09581 372.594522 38.369522 
C 373.32081 37.643233 373.728892 36.658036 373.728892 35.630909 
C 373.728892 34.603782 373.32081 33.618585 372.594522 32.892296 
C 371.868233 32.166008 370.883036 31.757926 369.855909 31.757926 
C 368.828782 31.757926 367.843585 32.166008 367.117296 32.892296 
C 366.391008 33.618585 365.982926 34.603782 365.982926 35.630909 
C 365.982926 36.658036 366.391008 37.643233 367.117296 38.369522 
C 367.843585 39.09581 368.828782 39.503892 369.855909 39.503892 
z
" clip-path="url(#p140a61b4ba)" style="fill: #7570b3; fill-opacity: 0.85; stroke: #ffffff; stroke-opacity: 0.85; stroke-width: 0.619677"/>
    <path d="M 223.510327 100.020879 
C 224.537454 100.020879 225.522651 99.612797 226.24894 98.886508 
C 226.975229 98.16022 227.383311 97.175023 227.383311 96.147895 
C 227.383311 95.120768 226.975229 94.135571 226.24894 93.409283 
C 225.522651 92.682994 224.537454 92.274912 223.510327 92.274912 
C 222.4832 92.274912 221.498003 92.682994 220.771714 93.409283 
C 220.045426 94.135571 219.637344 95.120768 219.637344 96.147895 
C 219.637344 97.175023 220.045426 98.16022 220.771714 98.886508 
C 221.498003 99.612797 222.4832 100.020879 223.510327 100.020879 
z
" clip-path="url(#p140a61b4ba)" style="fill: #7570b3; fill-opacity: 0.85; stroke: #ffffff; stroke-opacity: 0.85; stroke-width: 0.619677"/>
    <path d="M 300.77282 58.888306 
C 301.799947 58.888306 302.785144 58.480224 303.511433 57.753936 
C 304.237721 57.027647 304.645803 56.04245 304.645803 55.015323 
C 304.645803 53.988196 304.237721 53.002999 303.511433 52.27671 
C 302.785144 51.550422 301.799947 51.14234 300.77282 51.14234 
C 299.745693 51.14234 298.760496 51.550422 298.034207 52.27671 
C 297.307919 53.002999 296.899837 53.988196 296.899837 55.015323 
C 296.899837 56.04245 297.307919 57.027647 298.034207 57.753936 
C 298.760496 58.480224 299.745693 58.888306 300.77282 58.888306 
z
" clip-path="url(#p140a61b4ba)" style="fill: #7570b3; fill-opacity: 0.85; stroke: #ffffff; stroke-opacity: 0.85; stroke-width: 0.619677"/>
    <path d="M 333.684428 50.527391 
C 334.711555 50.527391 335.696752 50.11931 336.423041 49.393021 
C 337.14933 48.666732 337.557412 47.681535 337.557412 46.654408 
C 337.557412 45.627281 337.14933 44.642084 336.423041 43.915795 
C 335.696752 43.189507 334.711555 42.781425 333.684428 42.781425 
C 332.657301 42.781425 331.672104 43.189507 330.945815 43.915795 
C 330.219527 44.642084 329.811445 45.627281 329.811445 46.654408 
C 329.811445 47.681535 330.219527 48.666732 330.945815 49.393021 
C 331.672104 50.11931 332.657301 50.527391 333.684428 50.527391 
z
" clip-path="url(#p140a61b4ba)" style="fill: #7570b3; fill-opacity: 0.85; stroke: #ffffff; stroke-opacity: 0.85; stroke-width: 0.619677"/>
    <path d="M 360.669922 43.758906 
C 361.697049 43.758906 362.682246 43.350824 363.408535 42.624535 
C 364.134823 41.898246 364.542905 40.913049 364.542905 39.885922 
C 364.542905 38.858795 364.134823 37.873598 363.408535 37.147309 
C 362.682246 36.421021 361.697049 36.012939 360.669922 36.012939 
C 359.642795 36.012939 358.657598 36.421021 357.931309 37.147309 
C 357.205021 37.873598 356.796939 38.858795 356.796939 39.885922 
C 356.796939 40.913049 357.205021 41.898246 357.931309 42.624535 
C 358.657598 43.350824 359.642795 43.758906 360.669922 43.758906 
z
" clip-path="url(#p140a61b4ba)" style="fill: #7570b3; fill-opacity: 0.85; stroke: #ffffff; stroke-opacity: 0.85; stroke-width: 0.619677"/>
    <path d="M 256.546017 80.358587 
C 257.573144 80.358587 258.558341 79.950505 259.28463 79.224217 
C 260.010918 78.497928 260.419 77.512731 260.419 76.485604 
C 260.419 75.458477 260.010918 74.47328 259.28463 73.746991 
C 258.558341 73.020702 257.573144 72.61262 256.546017 72.61262 
C 255.51889 72.61262 254.533693 73.020702 253.807404 73.746991 
C 253.081116 74.47328 252.673034 75.458477 252.673034 76.485604 
C 252.673034 77.512731 253.081116 78.497928 253.807404 79.224217 
C 254.533693 79.950505 255.51889 80.358587 256.546017 80.358587 
z
" clip-path="url(#p140a61b4ba)" style="fill: #7570b3; fill-opacity: 0.85; stroke: #ffffff; stroke-opacity: 0.85; stroke-width: 0.619677"/>
    <path d="M 293.613753 69.11551 
C 294.64088 69.11551 295.626077 68.707428 296.352365 67.98114 
C 297.078654 67.254851 297.486736 66.269654 297.486736 65.242527 
C 297.486736 64.2154 297.078654 63.230203 296.352365 62.503914 
C 295.626077 61.777625 294.64088 61.369544 293.613753 61.369544 
C 292.586625 61.369544 291.601428 61.777625 290.87514 62.503914 
C 290.148851 63.230203 289.740769 64.2154 289.740769 65.242527 
C 289.740769 66.269654 290.148851 67.254851 290.87514 67.98114 
C 291.601428 68.707428 292.586625 69.11551 293.613753 69.11551 
z
" clip-path="url(#p140a61b4ba)" style="fill: #7570b3; fill-opacity: 0.85; stroke: #ffffff; stroke-opacity: 0.85; stroke-width: 0.619677"/>
    <path d="M 320.112433 56.701209 
C 321.139561 56.701209 322.124758 56.293127 322.851046 55.566838 
C 323.577335 54.840549 323.985417 53.855352 323.985417 52.828225 
C 323.985417 51.801098 323.577335 50.815901 322.851046 50.089612 
C 322.124758 49.363324 321.139561 48.955242 320.112433 48.955242 
C 319.085306 48.955242 318.100109 49.363324 317.373821 50.089612 
C 316.647532 50.815901 316.23945 51.801098 316.23945 52.828225 
C 316.23945 53.855352 316.647532 54.840549 317.373821 55.566838 
C 318.100109 56.293127 319.085306 56.701209 320.112433 56.701209 
z
" clip-path="url(#p140a61b4ba)" style="fill: #7570b3; fill-opacity: 0.85; stroke: #ffffff; stroke-opacity: 0.85; stroke-width: 0.619677"/>
    <path d="M 257.209317 80.676138 
C 258.236445 80.676138 259.221642 80.268056 259.94793 79.541768 
C 260.674219 78.815479 261.082301 77.830282 261.082301 76.803155 
C 261.082301 75.776028 260.674219 74.790831 259.94793 74.064542 
C 259.221642 73.338254 258.236445 72.930172 257.209317 72.930172 
C 256.18219 72.930172 255.196993 73.338254 254.470705 74.064542 
C 253.744416 74.790831 253.336334 75.776028 253.336334 76.803155 
C 253.336334 77.830282 253.744416 78.815479 254.470705 79.541768 
C 255.196993 80.268056 256.18219 80.676138 257.209317 80.676138 
z
" clip-path="url(#p140a61b4ba)" style="fill: #7570b3; fill-opacity: 0.85; stroke: #ffffff; stroke-opacity: 0.85; stroke-width: 0.619677"/>
    <path d="M 355.094452 49.056672 
C 356.12158 49.056672 357.106777 48.64859 357.833065 47.922301 
C 358.559354 47.196012 358.967436 46.210815 358.967436 45.183688 
C 358.967436 44.156561 358.559354 43.171364 357.833065 42.445075 
C 357.106777 41.718787 356.12158 41.310705 355.094452 41.310705 
C 354.067325 41.310705 353.082128 41.718787 352.35584 42.445075 
C 351.629551 43.171364 351.221469 44.156561 351.221469 45.183688 
C 351.221469 46.210815 351.629551 47.196012 352.35584 47.922301 
C 353.082128 48.64859 354.067325 49.056672 355.094452 49.056672 
z
" clip-path="url(#p140a61b4ba)" style="fill: #7570b3; fill-opacity: 0.85; stroke: #ffffff; stroke-opacity: 0.85; stroke-width: 0.619677"/>
    <path d="M 339.920933 51.382889 
C 340.94806 51.382889 341.933257 50.974807 342.659546 50.248518 
C 343.385834 49.522229 343.793916 48.537032 343.793916 47.509905 
C 343.793916 46.482778 343.385834 45.497581 342.659546 44.771292 
C 341.933257 44.045004 340.94806 43.636922 339.920933 43.636922 
C 338.893806 43.636922 337.908609 44.045004 337.18232 44.771292 
C 336.456031 45.497581 336.047949 46.482778 336.047949 47.509905 
C 336.047949 48.537032 336.456031 49.522229 337.18232 50.248518 
C 337.908609 50.974807 338.893806 51.382889 339.920933 51.382889 
z
" clip-path="url(#p140a61b4ba)" style="fill: #7570b3; fill-opacity: 0.85; stroke: #ffffff; stroke-opacity: 0.85; stroke-width: 0.619677"/>
    <path d="M 244.724918 82.692564 
C 245.752045 82.692564 246.737242 82.284482 247.46353 81.558194 
C 248.189819 80.831905 248.597901 79.846708 248.597901 78.819581 
C 248.597901 77.792454 248.189819 76.807257 247.46353 76.080968 
C 246.737242 75.354679 245.752045 74.946598 244.724918 74.946598 
C 243.69779 74.946598 242.712593 75.354679 241.986305 76.080968 
C 241.260016 76.807257 240.851934 77.792454 240.851934 78.819581 
C 240.851934 79.846708 241.260016 80.831905 241.986305 81.558194 
C 242.712593 82.284482 243.69779 82.692564 244.724918 82.692564 
z
" clip-path="url(#p140a61b4ba)" style="fill: #7570b3; fill-opacity: 0.85; stroke: #ffffff; stroke-opacity: 0.85; stroke-width: 0.619677"/>
    <path d="M 248.391676 88.717365 
C 249.418803 88.717365 250.404 88.309283 251.130289 87.582995 
C 251.856577 86.856706 252.264659 85.871509 252.264659 84.844382 
C 252.264659 83.817255 251.856577 82.832058 251.130289 82.105769 
C 250.404 81.37948 249.418803 80.971398 248.391676 80.971398 
C 247.364549 80.971398 246.379352 81.37948 245.653063 82.105769 
C 244.926774 82.832058 244.518692 83.817255 244.518692 84.844382 
C 244.518692 85.871509 244.926774 86.856706 245.653063 87.582995 
C 246.379352 88.309283 247.364549 88.717365 248.391676 88.717365 
z
" clip-path="url(#p140a61b4ba)" style="fill: #7570b3; fill-opacity: 0.85; stroke: #ffffff; stroke-opacity: 0.85; stroke-width: 0.619677"/>
    <path d="M 183.251936 111.484141 
C 184.279063 111.484141 185.26426 111.076059 185.990548 110.349771 
C 186.716837 109.623482 187.124919 108.638285 187.124919 107.611158 
C 187.124919 106.584031 186.716837 105.598834 185.990548 104.872545 
C 185.26426 104.146257 184.279063 103.738175 183.251936 103.738175 
C 182.224808 103.738175 181.239611 104.146257 180.513323 104.872545 
C 179.787034 105.598834 179.378952 106.584031 179.378952 107.611158 
C 179.378952 108.638285 179.787034 109.623482 180.513323 110.349771 
C 181.239611 111.076059 182.224808 111.484141 183.251936 111.484141 
z
" clip-path="url(#p140a61b4ba)" style="fill: #7570b3; fill-opacity: 0.85; stroke: #ffffff; stroke-opacity: 0.85; stroke-width: 0.619677"/>
    <path d="M 284.896748 71.476927 
C 285.923875 71.476927 286.909072 71.068845 287.635361 70.342557 
C 288.36165 69.616268 288.769732 68.631071 288.769732 67.603944 
C 288.769732 66.576817 288.36165 65.59162 287.635361 64.865331 
C 286.909072 64.139043 285.923875 63.730961 284.896748 63.730961 
C 283.869621 63.730961 282.884424 64.139043 282.158136 64.865331 
C 281.431847 65.59162 281.023765 66.576817 281.023765 67.603944 
C 281.023765 68.631071 281.431847 69.616268 282.158136 70.342557 
C 282.884424 71.068845 283.869621 71.476927 284.896748 71.476927 
z
" clip-path="url(#p140a61b4ba)" style="fill: #7570b3; fill-opacity: 0.85; stroke: #ffffff; stroke-opacity: 0.85; stroke-width: 0.619677"/>
    <path d="M 313.850753 59.854694 
C 314.877881 59.854694 315.863078 59.446612 316.589366 58.720324 
C 317.315655 57.994035 317.723737 57.008838 317.723737 55.981711 
C 317.723737 54.954584 317.315655 53.969387 316.589366 53.243098 
C 315.863078 52.51681 314.877881 52.108728 313.850753 52.108728 
C 312.823626 52.108728 311.838429 52.51681 311.112141 53.243098 
C 310.385852 53.969387 309.97777 54.954584 309.97777 55.981711 
C 309.97777 57.008838 310.385852 57.994035 311.112141 58.720324 
C 311.838429 59.446612 312.823626 59.854694 313.850753 59.854694 
z
" clip-path="url(#p140a61b4ba)" style="fill: #7570b3; fill-opacity: 0.85; stroke: #ffffff; stroke-opacity: 0.85; stroke-width: 0.619677"/>
    <path d="M 325.697158 55.471295 
C 326.724285 55.471295 327.709482 55.063213 328.435771 54.336924 
C 329.162059 53.610636 329.570141 52.625439 329.570141 51.598312 
C 329.570141 50.571184 329.162059 49.585987 328.435771 48.859699 
C 327.709482 48.13341 326.724285 47.725328 325.697158 47.725328 
C 324.670031 47.725328 323.684834 48.13341 322.958545 48.859699 
C 322.232256 49.585987 321.824174 50.571184 321.824174 51.598312 
C 321.824174 52.625439 322.232256 53.610636 322.958545 54.336924 
C 323.684834 55.063213 324.670031 55.471295 325.697158 55.471295 
z
" clip-path="url(#p140a61b4ba)" style="fill: #7570b3; fill-opacity: 0.85; stroke: #ffffff; stroke-opacity: 0.85; stroke-width: 0.619677"/>
    <path d="M 326.715892 54.111019 
C 327.743019 54.111019 328.728216 53.702937 329.454505 52.976649 
C 330.180794 52.25036 330.588876 51.265163 330.588876 50.238036 
C 330.588876 49.210909 330.180794 48.225712 329.454505 47.499423 
C 328.728216 46.773135 327.743019 46.365053 326.715892 46.365053 
C 325.688765 46.365053 324.703568 46.773135 323.977279 47.499423 
C 323.250991 48.225712 322.842909 49.210909 322.842909 50.238036 
C 322.842909 51.265163 323.250991 52.25036 323.977279 52.976649 
C 324.703568 53.702937 325.688765 54.111019 326.715892 54.111019 
z
" clip-path="url(#p140a61b4ba)" style="fill: #7570b3; fill-opacity: 0.85; stroke: #ffffff; stroke-opacity: 0.85; stroke-width: 0.619677"/>
    <path d="M 327.968099 55.094162 
C 328.995226 55.094162 329.980423 54.68608 330.706712 53.959791 
C 331.433 53.233503 331.841082 52.248306 331.841082 51.221179 
C 331.841082 50.194051 331.433 49.208854 330.706712 48.482566 
C 329.980423 47.756277 328.995226 47.348195 327.968099 47.348195 
C 326.940972 47.348195 325.955775 47.756277 325.229486 48.482566 
C 324.503197 49.208854 324.095115 50.194051 324.095115 51.221179 
C 324.095115 52.248306 324.503197 53.233503 325.229486 53.959791 
C 325.955775 54.68608 326.940972 55.094162 327.968099 55.094162 
z
" clip-path="url(#p140a61b4ba)" style="fill: #7570b3; fill-opacity: 0.85; stroke: #ffffff; stroke-opacity: 0.85; stroke-width: 0.619677"/>
    <path d="M 289.522441 70.644596 
C 290.549568 70.644596 291.534765 70.236514 292.261054 69.510226 
C 292.987342 68.783937 293.395424 67.79874 293.395424 66.771613 
C 293.395424 65.744486 292.987342 64.759289 292.261054 64.033 
C 291.534765 63.306711 290.549568 62.89863 289.522441 62.89863 
C 288.495314 62.89863 287.510117 63.306711 286.783828 64.033 
C 286.05754 64.759289 285.649458 65.744486 285.649458 66.771613 
C 285.649458 67.79874 286.05754 68.783937 286.783828 69.510226 
C 287.510117 70.236514 288.495314 70.644596 289.522441 70.644596 
z
" clip-path="url(#p140a61b4ba)" style="fill: #7570b3; fill-opacity: 0.85; stroke: #ffffff; stroke-opacity: 0.85; stroke-width: 0.619677"/>
    <path d="M 345.937103 48.430982 
C 346.96423 48.430982 347.949427 48.0229 348.675716 47.296611 
C 349.402005 46.570323 349.810087 45.585126 349.810087 44.557998 
C 349.810087 43.530871 349.402005 42.545674 348.675716 41.819386 
C 347.949427 41.093097 346.96423 40.685015 345.937103 40.685015 
C 344.909976 40.685015 343.924779 41.093097 343.19849 41.819386 
C 342.472202 42.545674 342.06412 43.530871 342.06412 44.557998 
C 342.06412 45.585126 342.472202 46.570323 343.19849 47.296611 
C 343.924779 48.0229 344.909976 48.430982 345.937103 48.430982 
z
" clip-path="url(#p140a61b4ba)" style="fill: #7570b3; fill-opacity: 0.85; stroke: #ffffff; stroke-opacity: 0.85; stroke-width: 0.619677"/>
    <path d="M 344.656113 51.865137 
L 346.592605 49.928646 
L 348.529097 51.865137 
L 350.465588 49.928646 
L 348.529097 47.992154 
L 350.465588 46.055662 
L 348.529097 44.119171 
L 346.592605 46.055662 
L 344.656113 44.119171 
L 342.719622 46.055662 
L 344.656113 47.992154 
L 342.719622 49.928646 
z
" clip-path="url(#p140a61b4ba)" style="fill: #66b3ff; fill-opacity: 0.85; stroke: #ffffff; stroke-opacity: 0.85; stroke-width: 0.619677"/>
    <path d="M 60.235478 164.710478 
L 60.235478 170.187704 
L 65.712704 170.187704 
L 65.712704 164.710478 
z
" clip-path="url(#p140a61b4ba)" style="fill: #1b9e77; fill-opacity: 0.85; stroke: #ffffff; stroke-opacity: 0.85; stroke-width: 0.619677"/>
    <path d="M 236.737755 85.709011 
L 239.319744 85.709011 
L 239.319744 83.127022 
L 241.901733 83.127022 
L 241.901733 80.545033 
L 239.319744 80.545033 
L 239.319744 77.963044 
L 236.737755 77.963044 
L 236.737755 80.545033 
L 234.155766 80.545033 
L 234.155766 83.127022 
L 236.737755 83.127022 
z
" clip-path="url(#p140a61b4ba)" style="fill: #d95f02; fill-opacity: 0.85; stroke: #ffffff; stroke-opacity: 0.85; stroke-width: 0.619677"/>
    <path d="M 206.17632 100.221318 
L 208.758309 100.221318 
L 208.758309 97.639329 
L 211.340297 97.639329 
L 211.340297 95.05734 
L 208.758309 95.05734 
L 208.758309 92.475351 
L 206.17632 92.475351 
L 206.17632 95.05734 
L 203.594331 95.05734 
L 203.594331 97.639329 
L 206.17632 97.639329 
z
" clip-path="url(#p140a61b4ba)" style="fill: #d95f02; fill-opacity: 0.85; stroke: #ffffff; stroke-opacity: 0.85; stroke-width: 0.619677"/>
    <path d="M 264.903456 76.474771 
L 267.485445 76.474771 
L 267.485445 73.892782 
L 270.067434 73.892782 
L 270.067434 71.310793 
L 267.485445 71.310793 
L 267.485445 68.728804 
L 264.903456 68.728804 
L 264.903456 71.310793 
L 262.321467 71.310793 
L 262.321467 73.892782 
L 264.903456 73.892782 
z
" clip-path="url(#p140a61b4ba)" style="fill: #d95f02; fill-opacity: 0.85; stroke: #ffffff; stroke-opacity: 0.85; stroke-width: 0.619677"/>
    <path d="M 224.740573 90.679547 
L 227.322562 90.679547 
L 227.322562 88.097558 
L 229.904551 88.097558 
L 229.904551 85.515569 
L 227.322562 85.515569 
L 227.322562 82.93358 
L 224.740573 82.93358 
L 224.740573 85.515569 
L 222.158584 85.515569 
L 222.158584 88.097558 
L 224.740573 88.097558 
z
" clip-path="url(#p140a61b4ba)" style="fill: #d95f02; fill-opacity: 0.85; stroke: #ffffff; stroke-opacity: 0.85; stroke-width: 0.619677"/>
   </g>
   <g id="matplotlib.axis_1">
    <g id="xtick_1">
     <g id="line2d_1">
      <path d="M 81.126866 174.04 
L 81.126866 29.04 
" clip-path="url(#p140a61b4ba)" style="fill: none; stroke: #b0b0b0; stroke-width: 0.8; stroke-linecap: square"/>
     </g>
     <g id="line2d_2">
      <defs>
       <path id="m3a95e8df99" d="M 0 0 
L 0 3.5 
" style="stroke: #000000; stroke-width: 0.8"/>
      </defs>
      <g>
       <use xlink:href="#m3a95e8df99" x="81.126866" y="174.04" style="stroke: #000000; stroke-width: 0.8"/>
      </g>
     </g>
     <g id="text_1">
      <!-- 0.3 -->
      <g transform="translate(73.175303 188.638438) scale(0.1 -0.1)">
       <defs>
        <path id="DejaVuSerif-30" d="M 2034 219 
Q 2513 219 2750 744 
Q 2988 1269 2988 2328 
Q 2988 3391 2750 3916 
Q 2513 4441 2034 4441 
Q 1556 4441 1318 3916 
Q 1081 3391 1081 2328 
Q 1081 1269 1318 744 
Q 1556 219 2034 219 
z
M 2034 -91 
Q 1275 -91 848 546 
Q 422 1184 422 2328 
Q 422 3475 848 4112 
Q 1275 4750 2034 4750 
Q 2797 4750 3222 4112 
Q 3647 3475 3647 2328 
Q 3647 1184 3222 546 
Q 2797 -91 2034 -91 
z
" transform="scale(0.015625)"/>
        <path id="DejaVuSerif-2e" d="M 603 325 
Q 603 500 722 622 
Q 841 744 1019 744 
Q 1191 744 1312 622 
Q 1434 500 1434 325 
Q 1434 153 1312 31 
Q 1191 -91 1019 -91 
Q 841 -91 722 29 
Q 603 150 603 325 
z
" transform="scale(0.015625)"/>
        <path id="DejaVuSerif-33" d="M 622 4469 
Q 988 4606 1323 4678 
Q 1659 4750 1953 4750 
Q 2638 4750 3022 4454 
Q 3406 4159 3406 3634 
Q 3406 3213 3140 2930 
Q 2875 2647 2388 2547 
Q 2963 2466 3280 2130 
Q 3597 1794 3597 1259 
Q 3597 606 3158 257 
Q 2719 -91 1894 -91 
Q 1528 -91 1179 -12 
Q 831 66 488 225 
L 488 1131 
L 838 1131 
Q 869 681 1141 450 
Q 1413 219 1906 219 
Q 2384 219 2661 495 
Q 2938 772 2938 1253 
Q 2938 1803 2653 2086 
Q 2369 2369 1819 2369 
L 1522 2369 
L 1522 2688 
L 1678 2688 
Q 2225 2688 2498 2914 
Q 2772 3141 2772 3597 
Q 2772 4006 2547 4223 
Q 2322 4441 1900 4441 
Q 1478 4441 1245 4241 
Q 1013 4041 972 3647 
L 622 3647 
L 622 4469 
z
" transform="scale(0.015625)"/>
       </defs>
       <use xlink:href="#DejaVuSerif-30"/>
       <use xlink:href="#DejaVuSerif-2e" x="63.623047"/>
       <use xlink:href="#DejaVuSerif-33" x="95.410156"/>
      </g>
     </g>
    </g>
    <g id="xtick_2">
     <g id="line2d_3">
      <path d="M 122.373872 174.04 
L 122.373872 29.04 
" clip-path="url(#p140a61b4ba)" style="fill: none; stroke: #b0b0b0; stroke-width: 0.8; stroke-linecap: square"/>
     </g>
     <g id="line2d_4">
      <g>
       <use xlink:href="#m3a95e8df99" x="122.373872" y="174.04" style="stroke: #000000; stroke-width: 0.8"/>
      </g>
     </g>
     <g id="text_2">
      <!-- 0.4 -->
      <g transform="translate(114.42231 188.638438) scale(0.1 -0.1)">
       <defs>
        <path id="DejaVuSerif-34" d="M 2234 1581 
L 2234 4063 
L 641 1581 
L 2234 1581 
z
M 3609 0 
L 1484 0 
L 1484 331 
L 2234 331 
L 2234 1247 
L 197 1247 
L 197 1588 
L 2241 4750 
L 2859 4750 
L 2859 1581 
L 3750 1581 
L 3750 1247 
L 2859 1247 
L 2859 331 
L 3609 331 
L 3609 0 
z
" transform="scale(0.015625)"/>
       </defs>
       <use xlink:href="#DejaVuSerif-30"/>
       <use xlink:href="#DejaVuSerif-2e" x="63.623047"/>
       <use xlink:href="#DejaVuSerif-34" x="95.410156"/>
      </g>
     </g>
    </g>
    <g id="xtick_3">
     <g id="line2d_5">
      <path d="M 163.620878 174.04 
L 163.620878 29.04 
" clip-path="url(#p140a61b4ba)" style="fill: none; stroke: #b0b0b0; stroke-width: 0.8; stroke-linecap: square"/>
     </g>
     <g id="line2d_6">
      <g>
       <use xlink:href="#m3a95e8df99" x="163.620878" y="174.04" style="stroke: #000000; stroke-width: 0.8"/>
      </g>
     </g>
     <g id="text_3">
      <!-- 0.5 -->
      <g transform="translate(155.669316 188.638438) scale(0.1 -0.1)">
       <defs>
        <path id="DejaVuSerif-35" d="M 3219 4666 
L 3219 4153 
L 1081 4153 
L 1081 2816 
Q 1244 2928 1461 2984 
Q 1678 3041 1947 3041 
Q 2703 3041 3140 2622 
Q 3578 2203 3578 1478 
Q 3578 738 3136 323 
Q 2694 -91 1894 -91 
Q 1572 -91 1234 -12 
Q 897 66 544 225 
L 544 1131 
L 897 1131 
Q 925 688 1179 453 
Q 1434 219 1894 219 
Q 2388 219 2653 544 
Q 2919 869 2919 1478 
Q 2919 2084 2655 2407 
Q 2391 2731 1894 2731 
Q 1613 2731 1398 2631 
Q 1184 2531 1019 2322 
L 750 2322 
L 750 4666 
L 3219 4666 
z
" transform="scale(0.015625)"/>
       </defs>
       <use xlink:href="#DejaVuSerif-30"/>
       <use xlink:href="#DejaVuSerif-2e" x="63.623047"/>
       <use xlink:href="#DejaVuSerif-35" x="95.410156"/>
      </g>
     </g>
    </g>
    <g id="xtick_4">
     <g id="line2d_7">
      <path d="M 204.867884 174.04 
L 204.867884 29.04 
" clip-path="url(#p140a61b4ba)" style="fill: none; stroke: #b0b0b0; stroke-width: 0.8; stroke-linecap: square"/>
     </g>
     <g id="line2d_8">
      <g>
       <use xlink:href="#m3a95e8df99" x="204.867884" y="174.04" style="stroke: #000000; stroke-width: 0.8"/>
      </g>
     </g>
     <g id="text_4">
      <!-- 0.6 -->
      <g transform="translate(196.916322 188.638438) scale(0.1 -0.1)">
       <defs>
        <path id="DejaVuSerif-36" d="M 2094 219 
Q 2534 219 2771 542 
Q 3009 866 3009 1472 
Q 3009 2078 2771 2401 
Q 2534 2725 2094 2725 
Q 1647 2725 1412 2412 
Q 1178 2100 1178 1509 
Q 1178 888 1415 553 
Q 1653 219 2094 219 
z
M 1075 2569 
Q 1288 2803 1556 2918 
Q 1825 3034 2163 3034 
Q 2859 3034 3264 2615 
Q 3669 2197 3669 1472 
Q 3669 763 3233 336 
Q 2797 -91 2069 -91 
Q 1278 -91 853 498 
Q 428 1088 428 2181 
Q 428 3406 931 4078 
Q 1434 4750 2350 4750 
Q 2597 4750 2869 4703 
Q 3141 4656 3425 4563 
L 3425 3794 
L 3072 3794 
Q 3034 4109 2831 4275 
Q 2628 4441 2284 4441 
Q 1678 4441 1381 3981 
Q 1084 3522 1075 2569 
z
" transform="scale(0.015625)"/>
       </defs>
       <use xlink:href="#DejaVuSerif-30"/>
       <use xlink:href="#DejaVuSerif-2e" x="63.623047"/>
       <use xlink:href="#DejaVuSerif-36" x="95.410156"/>
      </g>
     </g>
    </g>
    <g id="xtick_5">
     <g id="line2d_9">
      <path d="M 246.114891 174.04 
L 246.114891 29.04 
" clip-path="url(#p140a61b4ba)" style="fill: none; stroke: #b0b0b0; stroke-width: 0.8; stroke-linecap: square"/>
     </g>
     <g id="line2d_10">
      <g>
       <use xlink:href="#m3a95e8df99" x="246.114891" y="174.04" style="stroke: #000000; stroke-width: 0.8"/>
      </g>
     </g>
     <g id="text_5">
      <!-- 0.7 -->
      <g transform="translate(238.163328 188.638438) scale(0.1 -0.1)">
       <defs>
        <path id="DejaVuSerif-37" d="M 3609 4347 
L 1784 0 
L 1319 0 
L 3059 4153 
L 903 4153 
L 903 3578 
L 538 3578 
L 538 4666 
L 3609 4666 
L 3609 4347 
z
" transform="scale(0.015625)"/>
       </defs>
       <use xlink:href="#DejaVuSerif-30"/>
       <use xlink:href="#DejaVuSerif-2e" x="63.623047"/>
       <use xlink:href="#DejaVuSerif-37" x="95.410156"/>
      </g>
     </g>
    </g>
    <g id="xtick_6">
     <g id="line2d_11">
      <path d="M 287.361897 174.04 
L 287.361897 29.04 
" clip-path="url(#p140a61b4ba)" style="fill: none; stroke: #b0b0b0; stroke-width: 0.8; stroke-linecap: square"/>
     </g>
     <g id="line2d_12">
      <g>
       <use xlink:href="#m3a95e8df99" x="287.361897" y="174.04" style="stroke: #000000; stroke-width: 0.8"/>
      </g>
     </g>
     <g id="text_6">
      <!-- 0.8 -->
      <g transform="translate(279.410334 188.638438) scale(0.1 -0.1)">
       <defs>
        <path id="DejaVuSerif-38" d="M 2981 1275 
Q 2981 1775 2732 2051 
Q 2484 2328 2034 2328 
Q 1584 2328 1336 2051 
Q 1088 1775 1088 1275 
Q 1088 772 1336 495 
Q 1584 219 2034 219 
Q 2484 219 2732 495 
Q 2981 772 2981 1275 
z
M 2853 3541 
Q 2853 3966 2637 4203 
Q 2422 4441 2034 4441 
Q 1650 4441 1433 4203 
Q 1216 3966 1216 3541 
Q 1216 3113 1433 2875 
Q 1650 2638 2034 2638 
Q 2422 2638 2637 2875 
Q 2853 3113 2853 3541 
z
M 2516 2484 
Q 3047 2413 3344 2092 
Q 3641 1772 3641 1275 
Q 3641 619 3225 264 
Q 2809 -91 2034 -91 
Q 1263 -91 845 264 
Q 428 619 428 1275 
Q 428 1772 725 2092 
Q 1022 2413 1556 2484 
Q 1084 2569 832 2842 
Q 581 3116 581 3541 
Q 581 4103 968 4426 
Q 1356 4750 2034 4750 
Q 2713 4750 3100 4426 
Q 3488 4103 3488 3541 
Q 3488 3116 3236 2842 
Q 2984 2569 2516 2484 
z
" transform="scale(0.015625)"/>
       </defs>
       <use xlink:href="#DejaVuSerif-30"/>
       <use xlink:href="#DejaVuSerif-2e" x="63.623047"/>
       <use xlink:href="#DejaVuSerif-38" x="95.410156"/>
      </g>
     </g>
    </g>
    <g id="xtick_7">
     <g id="line2d_13">
      <path d="M 328.608903 174.04 
L 328.608903 29.04 
" clip-path="url(#p140a61b4ba)" style="fill: none; stroke: #b0b0b0; stroke-width: 0.8; stroke-linecap: square"/>
     </g>
     <g id="line2d_14">
      <g>
       <use xlink:href="#m3a95e8df99" x="328.608903" y="174.04" style="stroke: #000000; stroke-width: 0.8"/>
      </g>
     </g>
     <g id="text_7">
      <!-- 0.9 -->
      <g transform="translate(320.65734 188.638438) scale(0.1 -0.1)">
       <defs>
        <path id="DejaVuSerif-39" d="M 2994 2091 
Q 2784 1856 2512 1740 
Q 2241 1625 1900 1625 
Q 1206 1625 804 2044 
Q 403 2463 403 3188 
Q 403 3897 839 4323 
Q 1275 4750 2003 4750 
Q 2794 4750 3217 4161 
Q 3641 3572 3641 2478 
Q 3641 1253 3137 581 
Q 2634 -91 1722 -91 
Q 1475 -91 1203 -44 
Q 931 3 647 97 
L 647 872 
L 997 872 
Q 1038 556 1241 387 
Q 1444 219 1784 219 
Q 2391 219 2687 676 
Q 2984 1134 2994 2091 
z
M 1978 4441 
Q 1534 4441 1298 4117 
Q 1063 3794 1063 3188 
Q 1063 2581 1298 2256 
Q 1534 1931 1978 1931 
Q 2422 1931 2658 2245 
Q 2894 2559 2894 3150 
Q 2894 3772 2656 4106 
Q 2419 4441 1978 4441 
z
" transform="scale(0.015625)"/>
       </defs>
       <use xlink:href="#DejaVuSerif-30"/>
       <use xlink:href="#DejaVuSerif-2e" x="63.623047"/>
       <use xlink:href="#DejaVuSerif-39" x="95.410156"/>
      </g>
     </g>
    </g>
    <g id="xtick_8">
     <g id="line2d_15">
      <path d="M 369.855909 174.04 
L 369.855909 29.04 
" clip-path="url(#p140a61b4ba)" style="fill: none; stroke: #b0b0b0; stroke-width: 0.8; stroke-linecap: square"/>
     </g>
     <g id="line2d_16">
      <g>
       <use xlink:href="#m3a95e8df99" x="369.855909" y="174.04" style="stroke: #000000; stroke-width: 0.8"/>
      </g>
     </g>
     <g id="text_8">
      <!-- 1.0 -->
      <g transform="translate(361.904347 188.638438) scale(0.1 -0.1)">
       <defs>
        <path id="DejaVuSerif-31" d="M 909 0 
L 909 331 
L 1722 331 
L 1722 4213 
L 781 3603 
L 781 4013 
L 1919 4750 
L 2350 4750 
L 2350 331 
L 3163 331 
L 3163 0 
L 909 0 
z
" transform="scale(0.015625)"/>
       </defs>
       <use xlink:href="#DejaVuSerif-31"/>
       <use xlink:href="#DejaVuSerif-2e" x="63.623047"/>
       <use xlink:href="#DejaVuSerif-30" x="95.410156"/>
      </g>
     </g>
    </g>
    <g id="text_9">
     <!-- Demographic Parity -->
     <g transform="translate(165.770469 202.316563) scale(0.1 -0.1)">
      <defs>
       <path id="DejaVuSerif-44" d="M 1581 331 
L 2163 331 
Q 3072 331 3558 850 
Q 4044 1369 4044 2338 
Q 4044 3306 3559 3818 
Q 3075 4331 2163 4331 
L 1581 4331 
L 1581 331 
z
M 353 0 
L 353 331 
L 947 331 
L 947 4331 
L 353 4331 
L 353 4666 
L 2209 4666 
Q 3416 4666 4089 4050 
Q 4763 3434 4763 2338 
Q 4763 1238 4088 619 
Q 3413 0 2209 0 
L 353 0 
z
" transform="scale(0.015625)"/>
       <path id="DejaVuSerif-65" d="M 3469 1600 
L 991 1600 
L 991 1575 
Q 991 903 1244 561 
Q 1497 219 1991 219 
Q 2369 219 2611 417 
Q 2853 616 2950 1006 
L 3413 1006 
Q 3275 459 2904 184 
Q 2534 -91 1931 -91 
Q 1203 -91 761 389 
Q 319 869 319 1663 
Q 319 2450 753 2931 
Q 1188 3413 1894 3413 
Q 2647 3413 3050 2948 
Q 3453 2484 3469 1600 
z
M 2791 1931 
Q 2772 2513 2545 2808 
Q 2319 3103 1894 3103 
Q 1497 3103 1269 2806 
Q 1041 2509 991 1931 
L 2791 1931 
z
" transform="scale(0.015625)"/>
       <path id="DejaVuSerif-6d" d="M 3316 2675 
Q 3481 3041 3739 3227 
Q 3997 3413 4341 3413 
Q 4863 3413 5119 3089 
Q 5375 2766 5375 2113 
L 5375 331 
L 5894 331 
L 5894 0 
L 4300 0 
L 4300 331 
L 4800 331 
L 4800 2047 
Q 4800 2556 4650 2772 
Q 4500 2988 4153 2988 
Q 3769 2988 3567 2697 
Q 3366 2406 3366 1850 
L 3366 331 
L 3866 331 
L 3866 0 
L 2291 0 
L 2291 331 
L 2791 331 
L 2791 2069 
Q 2791 2566 2641 2777 
Q 2491 2988 2144 2988 
Q 1759 2988 1557 2697 
Q 1356 2406 1356 1850 
L 1356 331 
L 1856 331 
L 1856 0 
L 263 0 
L 263 331 
L 781 331 
L 781 2994 
L 231 2994 
L 231 3322 
L 1356 3322 
L 1356 2731 
Q 1516 3063 1762 3238 
Q 2009 3413 2322 3413 
Q 2709 3413 2968 3220 
Q 3228 3028 3316 2675 
z
" transform="scale(0.015625)"/>
       <path id="DejaVuSerif-6f" d="M 1925 219 
Q 2388 219 2623 584 
Q 2859 950 2859 1663 
Q 2859 2375 2623 2739 
Q 2388 3103 1925 3103 
Q 1463 3103 1227 2739 
Q 991 2375 991 1663 
Q 991 950 1228 584 
Q 1466 219 1925 219 
z
M 1925 -91 
Q 1200 -91 759 389 
Q 319 869 319 1663 
Q 319 2456 758 2934 
Q 1197 3413 1925 3413 
Q 2653 3413 3092 2934 
Q 3531 2456 3531 1663 
Q 3531 869 3092 389 
Q 2653 -91 1925 -91 
z
" transform="scale(0.015625)"/>
       <path id="DejaVuSerif-67" d="M 3359 2988 
L 3359 72 
Q 3359 -644 2965 -1033 
Q 2572 -1422 1844 -1422 
Q 1516 -1422 1216 -1362 
Q 916 -1303 641 -1184 
L 641 -488 
L 941 -488 
Q 997 -813 1206 -963 
Q 1416 -1113 1806 -1113 
Q 2313 -1113 2548 -827 
Q 2784 -541 2784 72 
L 2784 519 
Q 2616 206 2355 57 
Q 2094 -91 1709 -91 
Q 1097 -91 708 395 
Q 319 881 319 1663 
Q 319 2444 706 2928 
Q 1094 3413 1709 3413 
Q 2094 3413 2355 3264 
Q 2616 3116 2784 2803 
L 2784 3322 
L 3909 3322 
L 3909 2988 
L 3359 2988 
z
M 2784 1825 
Q 2784 2422 2554 2737 
Q 2325 3053 1888 3053 
Q 1444 3053 1217 2703 
Q 991 2353 991 1663 
Q 991 975 1217 622 
Q 1444 269 1888 269 
Q 2325 269 2554 583 
Q 2784 897 2784 1497 
L 2784 1825 
z
" transform="scale(0.015625)"/>
       <path id="DejaVuSerif-72" d="M 3059 3328 
L 3059 2497 
L 2728 2497 
Q 2713 2744 2591 2866 
Q 2469 2988 2234 2988 
Q 1809 2988 1582 2694 
Q 1356 2400 1356 1850 
L 1356 331 
L 2022 331 
L 2022 0 
L 263 0 
L 263 331 
L 781 331 
L 781 2994 
L 231 2994 
L 231 3322 
L 1356 3322 
L 1356 2731 
Q 1525 3078 1790 3245 
Q 2056 3413 2438 3413 
Q 2578 3413 2733 3391 
Q 2888 3369 3059 3328 
z
" transform="scale(0.015625)"/>
       <path id="DejaVuSerif-61" d="M 2547 1044 
L 2547 1747 
L 1806 1747 
Q 1378 1747 1168 1562 
Q 959 1378 959 997 
Q 959 650 1171 447 
Q 1384 244 1747 244 
Q 2106 244 2326 466 
Q 2547 688 2547 1044 
z
M 3122 2075 
L 3122 331 
L 3634 331 
L 3634 0 
L 2547 0 
L 2547 359 
Q 2356 128 2106 18 
Q 1856 -91 1522 -91 
Q 969 -91 644 203 
Q 319 497 319 997 
Q 319 1513 691 1797 
Q 1063 2081 1741 2081 
L 2547 2081 
L 2547 2309 
Q 2547 2688 2317 2895 
Q 2088 3103 1672 3103 
Q 1328 3103 1125 2947 
Q 922 2791 872 2484 
L 575 2484 
L 575 3156 
Q 875 3284 1158 3348 
Q 1441 3413 1709 3413 
Q 2400 3413 2761 3070 
Q 3122 2728 3122 2075 
z
" transform="scale(0.015625)"/>
       <path id="DejaVuSerif-70" d="M 1313 1825 
L 1313 1497 
Q 1313 897 1542 583 
Q 1772 269 2209 269 
Q 2650 269 2876 622 
Q 3103 975 3103 1663 
Q 3103 2353 2876 2703 
Q 2650 3053 2209 3053 
Q 1772 3053 1542 2737 
Q 1313 2422 1313 1825 
z
M 738 2988 
L 184 2988 
L 184 3322 
L 1313 3322 
L 1313 2803 
Q 1481 3116 1742 3264 
Q 2003 3413 2388 3413 
Q 3000 3413 3387 2928 
Q 3775 2444 3775 1663 
Q 3775 881 3387 395 
Q 3000 -91 2388 -91 
Q 2003 -91 1742 57 
Q 1481 206 1313 519 
L 1313 -997 
L 1856 -997 
L 1856 -1331 
L 184 -1331 
L 184 -997 
L 738 -997 
L 738 2988 
z
" transform="scale(0.015625)"/>
       <path id="DejaVuSerif-68" d="M 263 0 
L 263 331 
L 781 331 
L 781 4531 
L 231 4531 
L 231 4863 
L 1356 4863 
L 1356 2731 
Q 1516 3069 1770 3241 
Q 2025 3413 2363 3413 
Q 2913 3413 3172 3097 
Q 3431 2781 3431 2113 
L 3431 331 
L 3944 331 
L 3944 0 
L 2356 0 
L 2356 331 
L 2853 331 
L 2853 1931 
Q 2853 2541 2704 2764 
Q 2556 2988 2175 2988 
Q 1775 2988 1565 2697 
Q 1356 2406 1356 1850 
L 1356 331 
L 1856 331 
L 1856 0 
L 263 0 
z
" transform="scale(0.015625)"/>
       <path id="DejaVuSerif-69" d="M 622 4353 
Q 622 4497 726 4603 
Q 831 4709 978 4709 
Q 1122 4709 1226 4603 
Q 1331 4497 1331 4353 
Q 1331 4206 1228 4103 
Q 1125 4000 978 4000 
Q 831 4000 726 4103 
Q 622 4206 622 4353 
z
M 1356 331 
L 1900 331 
L 1900 0 
L 231 0 
L 231 331 
L 781 331 
L 781 2988 
L 231 2988 
L 231 3322 
L 1356 3322 
L 1356 331 
z
" transform="scale(0.015625)"/>
       <path id="DejaVuSerif-63" d="M 3291 997 
Q 3169 466 2822 187 
Q 2475 -91 1925 -91 
Q 1200 -91 759 389 
Q 319 869 319 1663 
Q 319 2459 759 2936 
Q 1200 3413 1925 3413 
Q 2241 3413 2553 3339 
Q 2866 3266 3181 3116 
L 3181 2266 
L 2847 2266 
Q 2781 2703 2561 2903 
Q 2341 3103 1931 3103 
Q 1466 3103 1228 2742 
Q 991 2381 991 1663 
Q 991 944 1227 581 
Q 1463 219 1931 219 
Q 2303 219 2525 412 
Q 2747 606 2828 997 
L 3291 997 
z
" transform="scale(0.015625)"/>
       <path id="DejaVuSerif-20" transform="scale(0.015625)"/>
       <path id="DejaVuSerif-50" d="M 1581 2375 
L 2406 2375 
Q 2872 2375 3115 2626 
Q 3359 2878 3359 3353 
Q 3359 3831 3115 4081 
Q 2872 4331 2406 4331 
L 1581 4331 
L 1581 2375 
z
M 353 0 
L 353 331 
L 947 331 
L 947 4331 
L 353 4331 
L 353 4666 
L 2559 4666 
Q 3259 4666 3668 4311 
Q 4078 3956 4078 3353 
Q 4078 2753 3668 2397 
Q 3259 2041 2559 2041 
L 1581 2041 
L 1581 331 
L 2303 331 
L 2303 0 
L 353 0 
z
" transform="scale(0.015625)"/>
       <path id="DejaVuSerif-74" d="M 691 2988 
L 184 2988 
L 184 3322 
L 691 3322 
L 691 4353 
L 1269 4353 
L 1269 3322 
L 2350 3322 
L 2350 2988 
L 1269 2988 
L 1269 878 
Q 1269 456 1350 337 
Q 1431 219 1650 219 
Q 1875 219 1978 351 
Q 2081 484 2088 781 
L 2522 781 
Q 2497 328 2275 118 
Q 2053 -91 1600 -91 
Q 1103 -91 897 129 
Q 691 350 691 878 
L 691 2988 
z
" transform="scale(0.015625)"/>
       <path id="DejaVuSerif-79" d="M 1381 -609 
L 1600 -56 
L 359 2988 
L -19 2988 
L -19 3322 
L 1509 3322 
L 1509 2988 
L 978 2988 
L 1913 703 
L 2847 2988 
L 2350 2988 
L 2350 3322 
L 3597 3322 
L 3597 2988 
L 3225 2988 
L 1703 -750 
Q 1547 -1138 1356 -1280 
Q 1166 -1422 819 -1422 
Q 672 -1422 517 -1397 
Q 363 -1372 206 -1325 
L 206 -691 
L 500 -691 
Q 519 -903 608 -995 
Q 697 -1088 884 -1088 
Q 1056 -1088 1161 -992 
Q 1266 -897 1381 -609 
z
" transform="scale(0.015625)"/>
      </defs>
      <use xlink:href="#DejaVuSerif-44"/>
      <use xlink:href="#DejaVuSerif-65" x="80.175781"/>
      <use xlink:href="#DejaVuSerif-6d" x="139.355469"/>
      <use xlink:href="#DejaVuSerif-6f" x="234.179688"/>
      <use xlink:href="#DejaVuSerif-67" x="294.384766"/>
      <use xlink:href="#DejaVuSerif-72" x="358.398438"/>
      <use xlink:href="#DejaVuSerif-61" x="406.201172"/>
      <use xlink:href="#DejaVuSerif-70" x="465.820312"/>
      <use xlink:href="#DejaVuSerif-68" x="529.833984"/>
      <use xlink:href="#DejaVuSerif-69" x="594.238281"/>
      <use xlink:href="#DejaVuSerif-63" x="626.220703"/>
      <use xlink:href="#DejaVuSerif-20" x="682.226562"/>
      <use xlink:href="#DejaVuSerif-50" x="714.013672"/>
      <use xlink:href="#DejaVuSerif-61" x="776.798828"/>
      <use xlink:href="#DejaVuSerif-72" x="836.417969"/>
      <use xlink:href="#DejaVuSerif-69" x="884.220703"/>
      <use xlink:href="#DejaVuSerif-74" x="916.203125"/>
      <use xlink:href="#DejaVuSerif-79" x="956.388672"/>
     </g>
    </g>
   </g>
   <g id="matplotlib.axis_2">
    <g id="ytick_1">
     <g id="line2d_17">
      <path d="M 47.63 164.670036 
L 385.2 164.670036 
" clip-path="url(#p140a61b4ba)" style="fill: none; stroke: #b0b0b0; stroke-width: 0.8; stroke-linecap: square"/>
     </g>
     <g id="line2d_18">
      <defs>
       <path id="mf890a2aa8c" d="M 0 0 
L -3.5 0 
" style="stroke: #000000; stroke-width: 0.8"/>
      </defs>
      <g>
       <use xlink:href="#mf890a2aa8c" x="47.63" y="164.670036" style="stroke: #000000; stroke-width: 0.8"/>
      </g>
     </g>
     <g id="text_10">
      <!-- 0.2 -->
      <g transform="translate(24.726875 168.469255) scale(0.1 -0.1)">
       <defs>
        <path id="DejaVuSerif-32" d="M 819 3553 
L 469 3553 
L 469 4384 
Q 803 4563 1142 4656 
Q 1481 4750 1806 4750 
Q 2534 4750 2956 4397 
Q 3378 4044 3378 3438 
Q 3378 2753 2422 1800 
Q 2347 1728 2309 1691 
L 1131 513 
L 3078 513 
L 3078 1088 
L 3444 1088 
L 3444 0 
L 434 0 
L 434 341 
L 1850 1753 
Q 2319 2222 2519 2614 
Q 2719 3006 2719 3438 
Q 2719 3909 2473 4175 
Q 2228 4441 1797 4441 
Q 1350 4441 1106 4219 
Q 863 3997 819 3553 
z
" transform="scale(0.015625)"/>
       </defs>
       <use xlink:href="#DejaVuSerif-30"/>
       <use xlink:href="#DejaVuSerif-2e" x="63.623047"/>
       <use xlink:href="#DejaVuSerif-32" x="95.410156"/>
      </g>
     </g>
    </g>
    <g id="ytick_2">
     <g id="line2d_19">
      <path d="M 47.63 132.410254 
L 385.2 132.410254 
" clip-path="url(#p140a61b4ba)" style="fill: none; stroke: #b0b0b0; stroke-width: 0.8; stroke-linecap: square"/>
     </g>
     <g id="line2d_20">
      <g>
       <use xlink:href="#mf890a2aa8c" x="47.63" y="132.410254" style="stroke: #000000; stroke-width: 0.8"/>
      </g>
     </g>
     <g id="text_11">
      <!-- 0.4 -->
      <g transform="translate(24.726875 136.209473) scale(0.1 -0.1)">
       <use xlink:href="#DejaVuSerif-30"/>
       <use xlink:href="#DejaVuSerif-2e" x="63.623047"/>
       <use xlink:href="#DejaVuSerif-34" x="95.410156"/>
      </g>
     </g>
    </g>
    <g id="ytick_3">
     <g id="line2d_21">
      <path d="M 47.63 100.150473 
L 385.2 100.150473 
" clip-path="url(#p140a61b4ba)" style="fill: none; stroke: #b0b0b0; stroke-width: 0.8; stroke-linecap: square"/>
     </g>
     <g id="line2d_22">
      <g>
       <use xlink:href="#mf890a2aa8c" x="47.63" y="100.150473" style="stroke: #000000; stroke-width: 0.8"/>
      </g>
     </g>
     <g id="text_12">
      <!-- 0.6 -->
      <g transform="translate(24.726875 103.949691) scale(0.1 -0.1)">
       <use xlink:href="#DejaVuSerif-30"/>
       <use xlink:href="#DejaVuSerif-2e" x="63.623047"/>
       <use xlink:href="#DejaVuSerif-36" x="95.410156"/>
      </g>
     </g>
    </g>
    <g id="ytick_4">
     <g id="line2d_23">
      <path d="M 47.63 67.890691 
L 385.2 67.890691 
" clip-path="url(#p140a61b4ba)" style="fill: none; stroke: #b0b0b0; stroke-width: 0.8; stroke-linecap: square"/>
     </g>
     <g id="line2d_24">
      <g>
       <use xlink:href="#mf890a2aa8c" x="47.63" y="67.890691" style="stroke: #000000; stroke-width: 0.8"/>
      </g>
     </g>
     <g id="text_13">
      <!-- 0.8 -->
      <g transform="translate(24.726875 71.68991) scale(0.1 -0.1)">
       <use xlink:href="#DejaVuSerif-30"/>
       <use xlink:href="#DejaVuSerif-2e" x="63.623047"/>
       <use xlink:href="#DejaVuSerif-38" x="95.410156"/>
      </g>
     </g>
    </g>
    <g id="ytick_5">
     <g id="line2d_25">
      <path d="M 47.63 35.630909 
L 385.2 35.630909 
" clip-path="url(#p140a61b4ba)" style="fill: none; stroke: #b0b0b0; stroke-width: 0.8; stroke-linecap: square"/>
     </g>
     <g id="line2d_26">
      <g>
       <use xlink:href="#mf890a2aa8c" x="47.63" y="35.630909" style="stroke: #000000; stroke-width: 0.8"/>
      </g>
     </g>
     <g id="text_14">
      <!-- 1.0 -->
      <g transform="translate(24.726875 39.430128) scale(0.1 -0.1)">
       <use xlink:href="#DejaVuSerif-31"/>
       <use xlink:href="#DejaVuSerif-2e" x="63.623047"/>
       <use xlink:href="#DejaVuSerif-30" x="95.410156"/>
      </g>
     </g>
    </g>
    <g id="text_15">
     <!-- Mean Reward -->
     <g transform="translate(18.647187 136.985313) rotate(-90) scale(0.1 -0.1)">
      <defs>
       <path id="DejaVuSerif-4d" d="M 353 0 
L 353 331 
L 947 331 
L 947 4331 
L 319 4331 
L 319 4666 
L 1678 4666 
L 3316 1344 
L 4953 4666 
L 6228 4666 
L 6228 4331 
L 5606 4331 
L 5606 331 
L 6203 331 
L 6203 0 
L 4378 0 
L 4378 331 
L 4972 331 
L 4972 3938 
L 3372 684 
L 2931 684 
L 1331 3938 
L 1331 331 
L 1925 331 
L 1925 0 
L 353 0 
z
" transform="scale(0.015625)"/>
       <path id="DejaVuSerif-6e" d="M 263 0 
L 263 331 
L 781 331 
L 781 2988 
L 231 2988 
L 231 3322 
L 1356 3322 
L 1356 2731 
Q 1516 3069 1770 3241 
Q 2025 3413 2363 3413 
Q 2913 3413 3172 3097 
Q 3431 2781 3431 2113 
L 3431 331 
L 3944 331 
L 3944 0 
L 2356 0 
L 2356 331 
L 2853 331 
L 2853 1931 
Q 2853 2541 2703 2767 
Q 2553 2994 2175 2994 
Q 1775 2994 1565 2701 
Q 1356 2409 1356 1850 
L 1356 331 
L 1856 331 
L 1856 0 
L 263 0 
z
" transform="scale(0.015625)"/>
       <path id="DejaVuSerif-52" d="M 3066 2316 
Q 3284 2256 3442 2114 
Q 3600 1972 3725 1716 
L 4403 331 
L 4972 331 
L 4972 0 
L 3872 0 
L 3144 1484 
Q 2934 1916 2759 2042 
Q 2584 2169 2278 2169 
L 1581 2169 
L 1581 331 
L 2241 331 
L 2241 0 
L 353 0 
L 353 331 
L 947 331 
L 947 4331 
L 353 4331 
L 353 4666 
L 2719 4666 
Q 3400 4666 3770 4341 
Q 4141 4016 4141 3419 
Q 4141 2938 3870 2661 
Q 3600 2384 3066 2316 
z
M 1581 2503 
L 2503 2503 
Q 2975 2503 3200 2726 
Q 3425 2950 3425 3419 
Q 3425 3888 3200 4109 
Q 2975 4331 2503 4331 
L 1581 4331 
L 1581 2503 
z
" transform="scale(0.015625)"/>
       <path id="DejaVuSerif-77" d="M 3072 3322 
L 3922 728 
L 4672 2988 
L 4191 2988 
L 4191 3322 
L 5394 3322 
L 5394 2988 
L 5025 2988 
L 4038 0 
L 3559 0 
L 2741 2484 
L 1919 0 
L 1459 0 
L 475 2988 
L 103 2988 
L 103 3322 
L 1606 3322 
L 1606 2988 
L 1069 2988 
L 1813 728 
L 2669 3322 
L 3072 3322 
z
" transform="scale(0.015625)"/>
       <path id="DejaVuSerif-64" d="M 3359 331 
L 3909 331 
L 3909 0 
L 2784 0 
L 2784 519 
Q 2616 206 2355 57 
Q 2094 -91 1709 -91 
Q 1097 -91 708 395 
Q 319 881 319 1663 
Q 319 2444 706 2928 
Q 1094 3413 1709 3413 
Q 2094 3413 2355 3264 
Q 2616 3116 2784 2803 
L 2784 4531 
L 2241 4531 
L 2241 4863 
L 3359 4863 
L 3359 331 
z
M 2784 1497 
L 2784 1825 
Q 2784 2422 2554 2737 
Q 2325 3053 1888 3053 
Q 1444 3053 1217 2703 
Q 991 2353 991 1663 
Q 991 975 1217 622 
Q 1444 269 1888 269 
Q 2325 269 2554 583 
Q 2784 897 2784 1497 
z
" transform="scale(0.015625)"/>
      </defs>
      <use xlink:href="#DejaVuSerif-4d"/>
      <use xlink:href="#DejaVuSerif-65" x="102.392578"/>
      <use xlink:href="#DejaVuSerif-61" x="161.572266"/>
      <use xlink:href="#DejaVuSerif-6e" x="221.191406"/>
      <use xlink:href="#DejaVuSerif-20" x="285.595703"/>
      <use xlink:href="#DejaVuSerif-52" x="317.382812"/>
      <use xlink:href="#DejaVuSerif-65" x="392.675781"/>
      <use xlink:href="#DejaVuSerif-77" x="451.855469"/>
      <use xlink:href="#DejaVuSerif-61" x="537.451172"/>
      <use xlink:href="#DejaVuSerif-72" x="597.070312"/>
      <use xlink:href="#DejaVuSerif-64" x="644.873047"/>
     </g>
    </g>
   </g>
   <g id="line2d_27"/>
   <g id="line2d_28"/>
   <g id="line2d_29"/>
   <g id="line2d_30"/>
   <g id="line2d_31">
    <path d="M 62.974091 167.449091 
L 183.251936 107.611158 
L 207.467314 96.348334 
L 223.510327 96.147895 
L 226.031567 86.806564 
L 238.02875 81.836028 
L 244.724918 78.819581 
L 248.391676 84.844382 
L 256.546017 76.485604 
L 257.209317 76.803155 
L 266.194451 72.601787 
L 284.896748 67.603944 
L 289.033945 66.752151 
L 289.522441 66.771613 
L 293.613753 65.242527 
L 300.77282 55.015323 
L 313.850753 55.981711 
L 320.112433 52.828225 
L 325.697158 51.598312 
L 326.715892 50.238036 
L 327.968099 51.221179 
L 333.684428 46.654408 
L 339.920933 47.509905 
L 345.937103 44.557998 
L 346.592605 47.992154 
L 355.094452 45.183688 
L 356.417105 42.619771 
L 360.013611 43.699766 
L 360.669922 39.885922 
L 369.855909 35.630909 
" clip-path="url(#p140a61b4ba)" style="fill: none; stroke-dasharray: 3.7,1.6; stroke-dashoffset: 0; stroke: #000000"/>
   </g>
   <g id="patch_3">
    <path d="M 47.63 174.04 
L 47.63 29.04 
" style="fill: none; stroke: #000000; stroke-width: 0.8; stroke-linejoin: miter; stroke-linecap: square"/>
   </g>
   <g id="patch_4">
    <path d="M 385.2 174.04 
L 385.2 29.04 
" style="fill: none; stroke: #000000; stroke-width: 0.8; stroke-linejoin: miter; stroke-linecap: square"/>
   </g>
   <g id="patch_5">
    <path d="M 47.63 174.04 
L 385.2 174.04 
" style="fill: none; stroke: #000000; stroke-width: 0.8; stroke-linejoin: miter; stroke-linecap: square"/>
   </g>
   <g id="patch_6">
    <path d="M 47.63 29.04 
L 385.2 29.04 
" style="fill: none; stroke: #000000; stroke-width: 0.8; stroke-linejoin: miter; stroke-linecap: square"/>
   </g>
   <g id="text_16">
    <!-- Pareto frontier: Mean Reward vs Fairness -->
    <g transform="translate(30.05625 23.04) scale(0.16 -0.16)">
     <defs>
      <path id="DejaVuSerif-Bold-50" d="M 300 0 
L 300 378 
L 897 378 
L 897 4288 
L 300 4288 
L 300 4666 
L 2956 4666 
Q 3734 4666 4193 4295 
Q 4653 3925 4653 3303 
Q 4653 2678 4192 2304 
Q 3731 1931 2956 1931 
L 2100 1931 
L 2100 378 
L 2853 378 
L 2853 0 
L 300 0 
z
M 2100 2309 
L 2450 2309 
Q 2856 2309 3098 2579 
Q 3341 2850 3341 3303 
Q 3341 3753 3100 4020 
Q 2859 4288 2450 4288 
L 2100 4288 
L 2100 2309 
z
" transform="scale(0.015625)"/>
      <path id="DejaVuSerif-Bold-61" d="M 3525 2041 
L 3525 378 
L 4000 378 
L 4000 0 
L 2419 0 
L 2419 422 
Q 2200 159 1931 34 
Q 1663 -91 1319 -91 
Q 809 -91 536 182 
Q 263 456 263 966 
Q 263 1525 655 1803 
Q 1047 2081 1838 2081 
L 2419 2081 
L 2419 2278 
Q 2419 2681 2228 2873 
Q 2038 3066 1638 3066 
Q 1306 3066 1126 2930 
Q 947 2794 872 2484 
L 519 2484 
L 519 3200 
Q 816 3306 1134 3359 
Q 1453 3413 1806 3413 
Q 2697 3413 3111 3081 
Q 3525 2750 3525 2041 
z
M 2419 1044 
L 2419 1709 
L 2003 1709 
Q 1694 1709 1528 1540 
Q 1363 1372 1363 1056 
Q 1363 741 1483 584 
Q 1603 428 1850 428 
Q 2106 428 2262 597 
Q 2419 766 2419 1044 
z
" transform="scale(0.015625)"/>
      <path id="DejaVuSerif-Bold-72" d="M 3438 3359 
L 3438 2369 
L 3084 2369 
Q 3066 2634 2941 2764 
Q 2816 2894 2578 2894 
Q 2216 2894 2006 2575 
Q 1797 2256 1797 1691 
L 1797 378 
L 2400 378 
L 2400 0 
L 219 0 
L 219 378 
L 691 378 
L 691 2944 
L 184 2944 
L 184 3322 
L 1797 3322 
L 1797 2731 
Q 1959 3078 2226 3245 
Q 2494 3413 2881 3413 
Q 2978 3413 3117 3398 
Q 3256 3384 3438 3359 
z
" transform="scale(0.015625)"/>
      <path id="DejaVuSerif-Bold-65" d="M 2566 1875 
Q 2566 2531 2444 2795 
Q 2322 3059 2028 3059 
Q 1744 3059 1620 2800 
Q 1497 2541 1497 1931 
L 1497 1875 
L 2566 1875 
z
M 3781 1503 
L 1497 1503 
L 1497 1478 
Q 1497 834 1690 548 
Q 1884 263 2316 263 
Q 2675 263 2897 453 
Q 3119 644 3181 1006 
L 3700 1006 
Q 3566 441 3166 175 
Q 2766 -91 2047 -91 
Q 1184 -91 723 364 
Q 263 819 263 1663 
Q 263 2488 734 2950 
Q 1206 3413 2047 3413 
Q 2872 3413 3312 2927 
Q 3753 2441 3781 1503 
z
" transform="scale(0.015625)"/>
      <path id="DejaVuSerif-Bold-74" d="M 634 2944 
L 153 2944 
L 153 3322 
L 634 3322 
L 634 4353 
L 1741 4353 
L 1741 3322 
L 2663 3322 
L 2663 2944 
L 1741 2944 
L 1741 909 
Q 1741 475 1809 369 
Q 1878 263 2059 263 
Q 2259 263 2356 397 
Q 2453 531 2459 813 
L 2925 813 
Q 2897 313 2651 111 
Q 2406 -91 1806 -91 
Q 1122 -91 878 123 
Q 634 338 634 909 
L 634 2944 
z
" transform="scale(0.015625)"/>
      <path id="DejaVuSerif-Bold-6f" d="M 2138 263 
Q 2488 263 2630 563 
Q 2772 863 2772 1663 
Q 2772 2463 2631 2761 
Q 2491 3059 2138 3059 
Q 1784 3059 1640 2757 
Q 1497 2456 1497 1663 
Q 1497 869 1640 566 
Q 1784 263 2138 263 
z
M 2138 -91 
Q 1259 -91 761 376 
Q 263 844 263 1663 
Q 263 2484 761 2948 
Q 1259 3413 2138 3413 
Q 3019 3413 3516 2948 
Q 4013 2484 4013 1663 
Q 4013 844 3514 376 
Q 3016 -91 2138 -91 
z
" transform="scale(0.015625)"/>
      <path id="DejaVuSerif-Bold-20" transform="scale(0.015625)"/>
      <path id="DejaVuSerif-Bold-66" d="M 3097 4031 
L 2747 4031 
Q 2722 4275 2605 4394 
Q 2488 4513 2272 4513 
Q 2022 4513 1909 4333 
Q 1797 4153 1797 3750 
L 1797 3322 
L 2631 3322 
L 2631 2944 
L 1797 2944 
L 1797 378 
L 2438 378 
L 2438 0 
L 219 0 
L 219 378 
L 691 378 
L 691 2944 
L 197 2944 
L 197 3322 
L 691 3322 
L 691 3738 
Q 691 4291 1044 4577 
Q 1397 4863 2081 4863 
Q 2347 4863 2600 4833 
Q 2853 4803 3097 4744 
L 3097 4031 
z
" transform="scale(0.015625)"/>
      <path id="DejaVuSerif-Bold-6e" d="M 219 0 
L 219 378 
L 691 378 
L 691 2944 
L 219 2944 
L 219 3322 
L 1797 3322 
L 1797 2853 
Q 1997 3150 2253 3281 
Q 2509 3413 2900 3413 
Q 3459 3413 3745 3083 
Q 4031 2753 4031 2113 
L 4031 378 
L 4506 378 
L 4506 0 
L 2522 0 
L 2522 378 
L 2925 378 
L 2925 2144 
Q 2925 2566 2817 2730 
Q 2709 2894 2444 2894 
Q 2109 2894 1953 2648 
Q 1797 2403 1797 1869 
L 1797 378 
L 2203 378 
L 2203 0 
L 219 0 
z
" transform="scale(0.015625)"/>
      <path id="DejaVuSerif-Bold-69" d="M 588 4263 
Q 588 4516 763 4689 
Q 938 4863 1191 4863 
Q 1438 4863 1611 4689 
Q 1784 4516 1784 4263 
Q 1784 4016 1611 3842 
Q 1438 3669 1191 3669 
Q 938 3669 763 3841 
Q 588 4013 588 4263 
z
M 1797 378 
L 2272 378 
L 2272 0 
L 219 0 
L 219 378 
L 691 378 
L 691 2944 
L 219 2944 
L 219 3322 
L 1797 3322 
L 1797 378 
z
" transform="scale(0.015625)"/>
      <path id="DejaVuSerif-Bold-3a" d="M 588 2541 
Q 588 2788 761 2963 
Q 934 3138 1178 3138 
Q 1422 3138 1597 2961 
Q 1772 2784 1772 2541 
Q 1772 2297 1598 2125 
Q 1425 1953 1178 1953 
Q 931 1953 759 2125 
Q 588 2297 588 2541 
z
M 588 506 
Q 588 750 761 925 
Q 934 1100 1178 1100 
Q 1422 1100 1597 925 
Q 1772 750 1772 506 
Q 1772 259 1597 84 
Q 1422 -91 1178 -91 
Q 934 -91 761 84 
Q 588 259 588 506 
z
" transform="scale(0.015625)"/>
      <path id="DejaVuSerif-Bold-4d" d="M 269 0 
L 269 378 
L 863 378 
L 863 4288 
L 269 4288 
L 269 4666 
L 2194 4666 
L 3525 1672 
L 4863 4666 
L 6784 4666 
L 6784 4288 
L 6188 4288 
L 6188 378 
L 6784 378 
L 6784 0 
L 4384 0 
L 4384 378 
L 4978 378 
L 4978 3938 
L 3531 684 
L 2741 684 
L 1300 3938 
L 1300 378 
L 1894 378 
L 1894 0 
L 269 0 
z
" transform="scale(0.015625)"/>
      <path id="DejaVuSerif-Bold-52" d="M 3397 2278 
Q 3675 2238 3865 2094 
Q 4056 1950 4197 1678 
L 4878 378 
L 5356 378 
L 5356 0 
L 3822 0 
L 3078 1409 
Q 2863 1847 2711 1967 
Q 2559 2088 2291 2088 
L 2100 2088 
L 2100 378 
L 2700 378 
L 2700 0 
L 300 0 
L 300 378 
L 897 378 
L 897 4288 
L 300 4288 
L 300 4666 
L 2963 4666 
Q 3775 4666 4217 4339 
Q 4659 4013 4659 3413 
Q 4659 2925 4345 2642 
Q 4031 2359 3397 2278 
z
M 2100 2463 
L 2509 2463 
Q 2947 2463 3183 2700 
Q 3419 2938 3419 3378 
Q 3419 3819 3183 4053 
Q 2947 4288 2509 4288 
L 2100 4288 
L 2100 2463 
z
" transform="scale(0.015625)"/>
      <path id="DejaVuSerif-Bold-77" d="M 3450 3322 
L 4206 1106 
L 4831 2944 
L 4397 2944 
L 4397 3322 
L 5638 3322 
L 5638 2944 
L 5247 2944 
L 4244 0 
L 3481 0 
L 2778 2081 
L 2069 0 
L 1313 0 
L 306 2944 
L -56 2944 
L -56 3322 
L 1825 3322 
L 1825 2944 
L 1434 2944 
L 2047 1147 
L 2791 3322 
L 3450 3322 
z
" transform="scale(0.015625)"/>
      <path id="DejaVuSerif-Bold-64" d="M 2747 1497 
L 2747 1825 
Q 2747 2406 2597 2665 
Q 2447 2925 2119 2925 
Q 1775 2925 1636 2651 
Q 1497 2378 1497 1663 
Q 1497 947 1637 672 
Q 1778 397 2119 397 
Q 2447 397 2597 656 
Q 2747 916 2747 1497 
z
M 3853 378 
L 4325 378 
L 4325 0 
L 2747 0 
L 2747 422 
Q 2606 163 2367 36 
Q 2128 -91 1778 -91 
Q 1072 -91 667 378 
Q 263 847 263 1663 
Q 263 2481 667 2947 
Q 1072 3413 1778 3413 
Q 2128 3413 2367 3286 
Q 2606 3159 2747 2900 
L 2747 4488 
L 2272 4488 
L 2272 4863 
L 3853 4863 
L 3853 378 
z
" transform="scale(0.015625)"/>
      <path id="DejaVuSerif-Bold-76" d="M 1428 0 
L 250 2944 
L -116 2944 
L -116 3322 
L 1791 3322 
L 1791 2944 
L 1388 2944 
L 2228 844 
L 3066 2944 
L 2631 2944 
L 2631 3322 
L 3878 3322 
L 3878 2944 
L 3494 2944 
L 2316 0 
L 1428 0 
z
" transform="scale(0.015625)"/>
      <path id="DejaVuSerif-Bold-73" d="M 300 97 
L 300 1025 
L 653 1025 
Q 697 653 931 458 
Q 1166 263 1569 263 
Q 1906 263 2086 380 
Q 2266 497 2266 716 
Q 2266 916 2152 1025 
Q 2038 1134 1709 1216 
L 1253 1331 
Q 738 1459 506 1698 
Q 275 1938 275 2344 
Q 275 2884 650 3148 
Q 1025 3413 1806 3413 
Q 2100 3413 2433 3364 
Q 2766 3316 3169 3213 
L 3169 2375 
L 2816 2375 
Q 2788 2716 2573 2887 
Q 2359 3059 1959 3059 
Q 1622 3059 1448 2951 
Q 1275 2844 1275 2638 
Q 1275 2469 1375 2372 
Q 1475 2275 1734 2209 
L 2188 2094 
Q 2841 1928 3091 1684 
Q 3341 1441 3341 1006 
Q 3341 444 2939 176 
Q 2538 -91 1691 -91 
Q 1381 -91 1034 -44 
Q 688 3 300 97 
z
" transform="scale(0.015625)"/>
      <path id="DejaVuSerif-Bold-46" d="M 300 0 
L 300 378 
L 897 378 
L 897 4288 
L 300 4288 
L 300 4666 
L 4459 4666 
L 4459 3566 
L 4031 3566 
L 4031 4238 
L 2106 4238 
L 2106 2741 
L 3291 2741 
L 3291 3334 
L 3719 3334 
L 3719 1722 
L 3291 1722 
L 3291 2316 
L 2106 2316 
L 2106 378 
L 2841 378 
L 2841 0 
L 300 0 
z
" transform="scale(0.015625)"/>
     </defs>
     <use xlink:href="#DejaVuSerif-Bold-50"/>
     <use xlink:href="#DejaVuSerif-Bold-61" x="72.570312"/>
     <use xlink:href="#DejaVuSerif-Bold-72" x="137.365234"/>
     <use xlink:href="#DejaVuSerif-Bold-65" x="190.050781"/>
     <use xlink:href="#DejaVuSerif-Bold-74" x="253.673828"/>
     <use xlink:href="#DejaVuSerif-Bold-6f" x="299.865234"/>
     <use xlink:href="#DejaVuSerif-Bold-20" x="366.564453"/>
     <use xlink:href="#DejaVuSerif-Bold-66" x="401.378906"/>
     <use xlink:href="#DejaVuSerif-Bold-72" x="444.396484"/>
     <use xlink:href="#DejaVuSerif-Bold-6f" x="497.082031"/>
     <use xlink:href="#DejaVuSerif-Bold-6e" x="563.78125"/>
     <use xlink:href="#DejaVuSerif-Bold-74" x="636.486328"/>
     <use xlink:href="#DejaVuSerif-Bold-69" x="682.677734"/>
     <use xlink:href="#DejaVuSerif-Bold-65" x="720.666016"/>
     <use xlink:href="#DejaVuSerif-Bold-72" x="784.289062"/>
     <use xlink:href="#DejaVuSerif-Bold-3a" x="836.974609"/>
     <use xlink:href="#DejaVuSerif-Bold-20" x="873.888672"/>
     <use xlink:href="#DejaVuSerif-Bold-4d" x="908.703125"/>
     <use xlink:href="#DejaVuSerif-Bold-65" x="1019.396484"/>
     <use xlink:href="#DejaVuSerif-Bold-61" x="1083.019531"/>
     <use xlink:href="#DejaVuSerif-Bold-6e" x="1147.814453"/>
     <use xlink:href="#DejaVuSerif-Bold-20" x="1220.519531"/>
     <use xlink:href="#DejaVuSerif-Bold-52" x="1255.333984"/>
     <use xlink:href="#DejaVuSerif-Bold-65" x="1338.439453"/>
     <use xlink:href="#DejaVuSerif-Bold-77" x="1402.0625"/>
     <use xlink:href="#DejaVuSerif-Bold-61" x="1488.146484"/>
     <use xlink:href="#DejaVuSerif-Bold-72" x="1552.941406"/>
     <use xlink:href="#DejaVuSerif-Bold-64" x="1605.626953"/>
     <use xlink:href="#DejaVuSerif-Bold-20" x="1675.548828"/>
     <use xlink:href="#DejaVuSerif-Bold-76" x="1710.363281"/>
     <use xlink:href="#DejaVuSerif-Bold-73" x="1768.46875"/>
     <use xlink:href="#DejaVuSerif-Bold-20" x="1824.767578"/>
     <use xlink:href="#DejaVuSerif-Bold-46" x="1859.582031"/>
     <use xlink:href="#DejaVuSerif-Bold-61" x="1925.078125"/>
     <use xlink:href="#DejaVuSerif-Bold-69" x="1989.873047"/>
     <use xlink:href="#DejaVuSerif-Bold-72" x="2027.861328"/>
     <use xlink:href="#DejaVuSerif-Bold-6e" x="2080.546875"/>
     <use xlink:href="#DejaVuSerif-Bold-65" x="2153.251953"/>
     <use xlink:href="#DejaVuSerif-Bold-73" x="2216.875"/>
     <use xlink:href="#DejaVuSerif-Bold-73" x="2273.173828"/>
    </g>
   </g>
   <g id="legend_1">
    <g id="patch_7">
     <path d="M 54.63 110.430625 
L 161.644063 110.430625 
Q 163.644063 110.430625 163.644063 108.430625 
L 163.644063 36.04 
Q 163.644063 34.04 161.644063 34.04 
L 54.63 34.04 
Q 52.63 34.04 52.63 36.04 
L 52.63 108.430625 
Q 52.63 110.430625 54.63 110.430625 
z
" style="fill: #ffffff; opacity: 0.8; stroke: #cccccc; stroke-linejoin: miter"/>
    </g>
    <g id="line2d_32">
     <defs>
      <path id="m5840714d9f" d="M 0 3.872983 
C 1.027127 3.872983 2.012324 3.464901 2.738613 2.738613 
C 3.464901 2.012324 3.872983 1.027127 3.872983 0 
C 3.872983 -1.027127 3.464901 -2.012324 2.738613 -2.738613 
C 2.012324 -3.464901 1.027127 -3.872983 0 -3.872983 
C -1.027127 -3.872983 -2.012324 -3.464901 -2.738613 -2.738613 
C -3.464901 -2.012324 -3.872983 -1.027127 -3.872983 0 
C -3.872983 1.027127 -3.464901 2.012324 -2.738613 2.738613 
C -2.012324 3.464901 -1.027127 3.872983 0 3.872983 
z
" style="stroke: #ffffff; stroke-opacity: 0.85; stroke-width: 0.619677"/>
     </defs>
     <g>
      <use xlink:href="#m5840714d9f" x="66.63" y="42.138438" style="fill: #7570b3; fill-opacity: 0.85; stroke: #ffffff; stroke-opacity: 0.85; stroke-width: 0.619677"/>
     </g>
    </g>
    <g id="text_17">
     <!-- fair-PPO -->
     <g transform="translate(84.63 45.638438) scale(0.1 -0.1)">
      <defs>
       <path id="DejaVuSerif-66" d="M 2753 4078 
L 2450 4078 
Q 2447 4313 2317 4434 
Q 2188 4556 1941 4556 
Q 1619 4556 1487 4379 
Q 1356 4203 1356 3750 
L 1356 3322 
L 2284 3322 
L 2284 2988 
L 1356 2988 
L 1356 331 
L 2094 331 
L 2094 0 
L 231 0 
L 231 331 
L 781 331 
L 781 2988 
L 231 2988 
L 231 3322 
L 781 3322 
L 781 3738 
Q 781 4294 1070 4578 
Q 1359 4863 1919 4863 
Q 2128 4863 2337 4825 
Q 2547 4788 2753 4709 
L 2753 4078 
z
" transform="scale(0.015625)"/>
       <path id="DejaVuSerif-2d" d="M 281 1959 
L 1881 1959 
L 1881 1472 
L 281 1472 
L 281 1959 
z
" transform="scale(0.015625)"/>
       <path id="DejaVuSerif-4f" d="M 2625 244 
Q 3391 244 3781 770 
Q 4172 1297 4172 2328 
Q 4172 3363 3781 3889 
Q 3391 4416 2625 4416 
Q 1856 4416 1465 3889 
Q 1075 3363 1075 2328 
Q 1075 1297 1465 770 
Q 1856 244 2625 244 
z
M 2625 -91 
Q 2150 -91 1751 65 
Q 1353 222 1050 525 
Q 700 875 529 1319 
Q 359 1763 359 2328 
Q 359 2894 529 3339 
Q 700 3784 1050 4134 
Q 1356 4441 1750 4595 
Q 2144 4750 2625 4750 
Q 3641 4750 4266 4084 
Q 4891 3419 4891 2328 
Q 4891 1769 4719 1320 
Q 4547 872 4197 525 
Q 3891 219 3497 64 
Q 3103 -91 2625 -91 
z
" transform="scale(0.015625)"/>
      </defs>
      <use xlink:href="#DejaVuSerif-66"/>
      <use xlink:href="#DejaVuSerif-61" x="37.011719"/>
      <use xlink:href="#DejaVuSerif-69" x="96.630859"/>
      <use xlink:href="#DejaVuSerif-72" x="128.613281"/>
      <use xlink:href="#DejaVuSerif-2d" x="176.416016"/>
      <use xlink:href="#DejaVuSerif-50" x="210.205078"/>
      <use xlink:href="#DejaVuSerif-50" x="277.490234"/>
      <use xlink:href="#DejaVuSerif-4f" x="344.775391"/>
     </g>
    </g>
    <g id="line2d_33">
     <defs>
      <path id="m8d69322797" d="M -1.936492 3.872983 
L 0 1.936492 
L 1.936492 3.872983 
L 3.872983 1.936492 
L 1.936492 0 
L 3.872983 -1.936492 
L 1.936492 -3.872983 
L 0 -1.936492 
L -1.936492 -3.872983 
L -3.872983 -1.936492 
L -1.936492 0 
L -3.872983 1.936492 
z
" style="stroke: #ffffff; stroke-opacity: 0.85; stroke-width: 0.619677; stroke-linejoin: miter"/>
     </defs>
     <g>
      <use xlink:href="#m8d69322797" x="66.63" y="56.816563" style="fill: #66b3ff; fill-opacity: 0.85; stroke: #ffffff; stroke-opacity: 0.85; stroke-width: 0.619677; stroke-linejoin: miter"/>
     </g>
    </g>
    <g id="text_18">
     <!-- vanilla-PPO -->
     <g transform="translate(84.63 60.316563) scale(0.1 -0.1)">
      <defs>
       <path id="DejaVuSerif-76" d="M 1581 0 
L 359 2988 
L -19 2988 
L -19 3322 
L 1509 3322 
L 1509 2988 
L 978 2988 
L 1913 703 
L 2847 2988 
L 2350 2988 
L 2350 3322 
L 3597 3322 
L 3597 2988 
L 3225 2988 
L 2003 0 
L 1581 0 
z
" transform="scale(0.015625)"/>
       <path id="DejaVuSerif-6c" d="M 1313 331 
L 1856 331 
L 1856 0 
L 184 0 
L 184 331 
L 738 331 
L 738 4531 
L 184 4531 
L 184 4863 
L 1313 4863 
L 1313 331 
z
" transform="scale(0.015625)"/>
      </defs>
      <use xlink:href="#DejaVuSerif-76"/>
      <use xlink:href="#DejaVuSerif-61" x="56.494141"/>
      <use xlink:href="#DejaVuSerif-6e" x="116.113281"/>
      <use xlink:href="#DejaVuSerif-69" x="180.517578"/>
      <use xlink:href="#DejaVuSerif-6c" x="212.5"/>
      <use xlink:href="#DejaVuSerif-6c" x="244.482422"/>
      <use xlink:href="#DejaVuSerif-61" x="276.464844"/>
      <use xlink:href="#DejaVuSerif-2d" x="336.083984"/>
      <use xlink:href="#DejaVuSerif-50" x="369.873047"/>
      <use xlink:href="#DejaVuSerif-50" x="437.158203"/>
      <use xlink:href="#DejaVuSerif-4f" x="504.443359"/>
     </g>
    </g>
    <g id="line2d_34">
     <defs>
      <path id="m7dc08654e7" d="M -2.738613 -2.738613 
L -2.738613 2.738613 
L 2.738613 2.738613 
L 2.738613 -2.738613 
z
" style="stroke: #ffffff; stroke-opacity: 0.85; stroke-width: 0.619677; stroke-linejoin: miter"/>
     </defs>
     <g>
      <use xlink:href="#m7dc08654e7" x="66.63" y="71.494687" style="fill: #1b9e77; fill-opacity: 0.85; stroke: #ffffff; stroke-opacity: 0.85; stroke-width: 0.619677; stroke-linejoin: miter"/>
     </g>
    </g>
    <g id="text_19">
     <!-- FEN -->
     <g transform="translate(84.63 74.994687) scale(0.1 -0.1)">
      <defs>
       <path id="DejaVuSerif-46" d="M 353 0 
L 353 331 
L 947 331 
L 947 4331 
L 353 4331 
L 353 4666 
L 4172 4666 
L 4172 3628 
L 3788 3628 
L 3788 4281 
L 1581 4281 
L 1581 2719 
L 3175 2719 
L 3175 3303 
L 3559 3303 
L 3559 1753 
L 3175 1753 
L 3175 2338 
L 1581 2338 
L 1581 331 
L 2328 331 
L 2328 0 
L 353 0 
z
" transform="scale(0.015625)"/>
       <path id="DejaVuSerif-45" d="M 353 0 
L 353 331 
L 947 331 
L 947 4331 
L 353 4331 
L 353 4666 
L 4109 4666 
L 4109 3628 
L 3725 3628 
L 3725 4281 
L 1581 4281 
L 1581 2719 
L 3109 2719 
L 3109 3303 
L 3494 3303 
L 3494 1753 
L 3109 1753 
L 3109 2338 
L 1581 2338 
L 1581 384 
L 3775 384 
L 3775 1038 
L 4159 1038 
L 4159 0 
L 353 0 
z
" transform="scale(0.015625)"/>
       <path id="DejaVuSerif-4e" d="M 313 0 
L 313 331 
L 941 331 
L 941 4331 
L 313 4331 
L 313 4666 
L 1509 4666 
L 4306 984 
L 4306 4331 
L 3681 4331 
L 3681 4666 
L 5319 4666 
L 5319 4331 
L 4691 4331 
L 4691 -91 
L 4313 -91 
L 1325 3841 
L 1325 331 
L 1953 331 
L 1953 0 
L 313 0 
z
" transform="scale(0.015625)"/>
      </defs>
      <use xlink:href="#DejaVuSerif-46"/>
      <use xlink:href="#DejaVuSerif-45" x="69.384766"/>
      <use xlink:href="#DejaVuSerif-4e" x="142.382812"/>
     </g>
    </g>
    <g id="line2d_35">
     <defs>
      <path id="ma0503c6a53" d="M -1.290994 3.872983 
L 1.290994 3.872983 
L 1.290994 1.290994 
L 3.872983 1.290994 
L 3.872983 -1.290994 
L 1.290994 -1.290994 
L 1.290994 -3.872983 
L -1.290994 -3.872983 
L -1.290994 -1.290994 
L -3.872983 -1.290994 
L -3.872983 1.290994 
L -1.290994 1.290994 
z
" style="stroke: #ffffff; stroke-opacity: 0.85; stroke-width: 0.619677; stroke-linejoin: miter"/>
     </defs>
     <g>
      <use xlink:href="#ma0503c6a53" x="66.63" y="86.172813" style="fill: #d95f02; fill-opacity: 0.85; stroke: #ffffff; stroke-opacity: 0.85; stroke-width: 0.619677; stroke-linejoin: miter"/>
     </g>
    </g>
    <g id="text_20">
     <!-- SOTO -->
     <g transform="translate(84.63 89.672813) scale(0.1 -0.1)">
      <defs>
       <path id="DejaVuSerif-53" d="M 594 225 
L 594 1288 
L 953 1284 
Q 969 753 1261 498 
Q 1553 244 2150 244 
Q 2706 244 2998 464 
Q 3291 684 3291 1106 
Q 3291 1444 3114 1625 
Q 2938 1806 2369 1978 
L 1753 2163 
Q 1084 2366 811 2669 
Q 538 2972 538 3500 
Q 538 4094 959 4422 
Q 1381 4750 2144 4750 
Q 2469 4750 2856 4679 
Q 3244 4609 3681 4475 
L 3681 3481 
L 3328 3481 
Q 3275 3975 2998 4195 
Q 2722 4416 2156 4416 
Q 1663 4416 1405 4214 
Q 1147 4013 1147 3628 
Q 1147 3294 1340 3103 
Q 1534 2913 2163 2725 
L 2741 2553 
Q 3375 2363 3645 2067 
Q 3916 1772 3916 1275 
Q 3916 597 3481 253 
Q 3047 -91 2188 -91 
Q 1803 -91 1404 -12 
Q 1006 66 594 225 
z
" transform="scale(0.015625)"/>
       <path id="DejaVuSerif-54" d="M 1222 0 
L 1222 331 
L 1819 331 
L 1819 4294 
L 447 4294 
L 447 3566 
L 63 3566 
L 63 4666 
L 4206 4666 
L 4206 3566 
L 3822 3566 
L 3822 4294 
L 2450 4294 
L 2450 331 
L 3047 331 
L 3047 0 
L 1222 0 
z
" transform="scale(0.015625)"/>
      </defs>
      <use xlink:href="#DejaVuSerif-53"/>
      <use xlink:href="#DejaVuSerif-4f" x="68.505859"/>
      <use xlink:href="#DejaVuSerif-54" x="150.488281"/>
      <use xlink:href="#DejaVuSerif-4f" x="217.1875"/>
     </g>
    </g>
    <g id="line2d_36">
     <path d="M 56.63 100.850938 
L 66.63 100.850938 
L 76.63 100.850938 
" style="fill: none; stroke-dasharray: 3.7,1.6; stroke-dashoffset: 0; stroke: #000000"/>
    </g>
    <g id="text_21">
     <!-- Pareto frontier -->
     <g transform="translate(84.63 104.350938) scale(0.1 -0.1)">
      <use xlink:href="#DejaVuSerif-50"/>
      <use xlink:href="#DejaVuSerif-61" x="62.785156"/>
      <use xlink:href="#DejaVuSerif-72" x="122.404297"/>
      <use xlink:href="#DejaVuSerif-65" x="170.207031"/>
      <use xlink:href="#DejaVuSerif-74" x="229.386719"/>
      <use xlink:href="#DejaVuSerif-6f" x="269.572266"/>
      <use xlink:href="#DejaVuSerif-20" x="329.777344"/>
      <use xlink:href="#DejaVuSerif-66" x="361.564453"/>
      <use xlink:href="#DejaVuSerif-72" x="398.576172"/>
      <use xlink:href="#DejaVuSerif-6f" x="446.378906"/>
      <use xlink:href="#DejaVuSerif-6e" x="506.583984"/>
      <use xlink:href="#DejaVuSerif-74" x="570.988281"/>
      <use xlink:href="#DejaVuSerif-69" x="611.173828"/>
      <use xlink:href="#DejaVuSerif-65" x="643.15625"/>
      <use xlink:href="#DejaVuSerif-72" x="702.335938"/>
     </g>
    </g>
   </g>
  </g>
 </g>
 <defs>
  <clipPath id="p140a61b4ba">
   <rect x="47.63" y="29.04" width="337.57" height="145"/>
  </clipPath>
 </defs>
</svg>
